<?xml version="1.0" encoding="UTF-8" standalone="no"?>
<!-- Created with Inkscape (http://www.inkscape.org/) -->

<svg
   xmlns:dc="http://purl.org/dc/elements/1.1/"
   xmlns:cc="http://creativecommons.org/ns#"
   xmlns:rdf="http://www.w3.org/1999/02/22-rdf-syntax-ns#"
   xmlns:svg="http://www.w3.org/2000/svg"
   xmlns="http://www.w3.org/2000/svg"
   xmlns:sodipodi="http://sodipodi.sourceforge.net/DTD/sodipodi-0.dtd"
   xmlns:inkscape="http://www.inkscape.org/namespaces/inkscape"
   width="744.09448819"
   height="1052.3622047"
   id="svg5095"
   version="1.1"
   inkscape:version="0.48.4 r9939"
   sodipodi:docname="New document 22">
  <defs
     id="defs5097" />
  <sodipodi:namedview
     id="base"
     pagecolor="#ffffff"
     bordercolor="#666666"
     borderopacity="1.0"
     inkscape:pageopacity="0.0"
     inkscape:pageshadow="2"
     inkscape:zoom="0.7"
     inkscape:cx="655.25267"
     inkscape:cy="561.11693"
     inkscape:document-units="px"
     inkscape:current-layer="g5114"
     showgrid="false"
     inkscape:window-width="1920"
     inkscape:window-height="1137"
     inkscape:window-x="1271"
     inkscape:window-y="-9"
     inkscape:window-maximized="1" />
  <metadata
     id="metadata5100">
    <rdf:RDF>
      <cc:Work
         rdf:about="">
        <dc:format>image/svg+xml</dc:format>
        <dc:type
           rdf:resource="http://purl.org/dc/dcmitype/StillImage" />
        <dc:title></dc:title>
      </cc:Work>
    </rdf:RDF>
  </metadata>
  <g
     inkscape:label="Layer 1"
     inkscape:groupmode="layer"
     id="layer1">
    <g
       id="g5114"
       transform="translate(657.14286,-31.428571)">
      <path
         style="fill:#000000"
         d="m -259.13917,610.17614 c -2.2575,-31.44411 -4.9727,-68.82516 -6.0337,-83.06898 l -1.9291,-25.89786 -21.698,-55.10214 c -11.9339,-30.30618 -21.8791,-55.32562 -22.1005,-55.59875 -0.3931,-0.48509 -1.7087,0.87453 -11.5413,11.92722 l -4.7988,5.39427 -5.9024,-4.16244 c -3.2462,-2.28934 -6.3158,-4.16244 -6.8212,-4.16244 -0.5054,0 -1.4772,1.99428 -2.1597,4.43173 l -1.2408,4.43173 -9.8892,-6.58424 c -5.439,-3.62134 -9.8891,-6.88142 -9.8891,-7.24464 0,-0.36322 1.35,-1.95378 3,-3.53458 1.65,-1.5808 3,-3.21725 3,-3.63657 0,-0.41931 -2.9038,-2.8345 -6.4529,-5.36709 l -6.4529,-4.6047 3.6407,-5.69582 c 2.0024,-3.1327 8.2757,-12.87622 13.9408,-21.65226 l 10.3,-15.95644 -2.9425,-1.86306 c -3.2505,-2.05807 -4.488,-4.71581 -3.5588,-7.64341 0.4213,-1.32737 0.057,-2.07492 -1.1826,-2.42377 -0.9855,-0.27743 -34.1313,-6.48605 -73.6574,-13.79694 l -71.8656,-13.29252 -2.1344,2.49901 c -1.1739,1.37446 -2.8094,3.50399 -3.6344,4.73229 l -1.5,2.23329 -7.5,-5.03506 c -4.125,-2.76928 -7.447,-5.64475 -7.3821,-6.38995 0.091,-1.05036 101.3708,-151.57392 107.6912,-160.0528 1.4065,-1.88688 1.6509,-1.81519 8.0707,2.36746 3.6411,2.37229 6.6202,4.50036 6.6202,4.72904 0,0.22868 -1.1519,2.68884 -2.5597,5.46703 -2.2919,4.5229 -2.411,5.27774 -1.1388,7.21675 0.7814,1.19104 19.5175,28.94052 41.6356,61.66552 29.5344,43.69774 40.6594,59.41484 41.8888,59.17935 0.9208,-0.17635 2.7991,-0.54011 4.1741,-0.80835 1.9975,-0.38967 7.9273,3.20851 29.5,17.90034 24.9727,17.00739 27.0235,18.62589 27.3132,21.55575 0.2643,2.67366 -2.1309,6.79421 -15.3578,26.42031 -8.6191,12.78893 -16.6009,24.2651 -17.7375,25.5026 -2.8056,3.05472 -6.018,2.8276 -11.2877,-0.79804 -2.6402,-1.81651 -4.3995,-2.52358 -4.3542,-1.75 0.042,0.71392 11.4207,24.69738 25.2865,53.29657 l 25.2104,51.99852 20.1727,7.13054 c 17.6473,6.23789 22.0824,7.40203 35.4279,9.29917 8.3904,1.19275 15.3433,2.25967 15.4509,2.37094 -2.80286,17.39306 1.15165,8.53497 -5.4048,41.95029 -0.4024,-0.13861 -7.7934,35.18639 -16.4244,78.5 -20.47873,8.2768 -32.51233,15.52081 -55.7914,3.92313 z m 59.9962,-141.61509 c -25.5978,-5.43047 -47.3614,-19.97483 -61.9159,-41.37782 -5.1332,-7.54852 -11.6871,-22.3643 -13.9867,-31.6186 -2.6912,-10.82982 -2.6756,-12.05975 0.1526,-12.05905 6.7353,0.002 65.6073,8.399 79.5,11.33963 8.9375,1.89179 16.25,3.06058 16.25,2.59733 0,-0.46326 -13.7677,-23.92134 -30.5948,-52.12907 l -30.5948,-51.28679 3.0947,-2.58359 c 4.9463,-4.12937 19.8696,-11.52067 29.0675,-14.39678 51.3976,-16.07156 107.1522,13.30382 123.292099,64.95871 7.6771,24.57004 5.7162,49.40731 -5.7631,73 -13.977099,28.72606 -39.161699,47.99544 -70.498099,53.93985 -10.8294,2.0543 -27.2948,1.888 -38.0035,-0.38382 z"
         id="path5116"
         inkscape:connector-curvature="0"
         sodipodi:nodetypes="cscscsccsccssssscsscsscscsscscsssscscsscssscscssccccssscssscssssss" />
    </g>
  </g>
</svg>
