<?xml version="1.0" encoding="UTF-8" standalone="no"?>
<!-- Created with Inkscape (http://www.inkscape.org/) -->

<svg
   xmlns:dc="http://purl.org/dc/elements/1.1/"
   xmlns:cc="http://creativecommons.org/ns#"
   xmlns:rdf="http://www.w3.org/1999/02/22-rdf-syntax-ns#"
   xmlns:svg="http://www.w3.org/2000/svg"
   xmlns="http://www.w3.org/2000/svg"
   xmlns:sodipodi="http://sodipodi.sourceforge.net/DTD/sodipodi-0.dtd"
   xmlns:inkscape="http://www.inkscape.org/namespaces/inkscape"
   width="744.09448819"
   height="1052.3622047"
   id="svg5132"
   version="1.1"
   inkscape:version="0.48.4 r9939"
   sodipodi:docname="CONFERENCE.svg"
   inkscape:export-filename="C:\bin\CardMaker\MonEntrepriseAgile\Activities\CONFERENCE.png"
   inkscape:export-xdpi="300"
   inkscape:export-ydpi="300">
  <defs
     id="defs5134" />
  <sodipodi:namedview
     id="base"
     pagecolor="#ffffff"
     bordercolor="#666666"
     borderopacity="1.0"
     inkscape:pageopacity="0.0"
     inkscape:pageshadow="2"
     inkscape:zoom="0.49497475"
     inkscape:cx="514.82404"
     inkscape:cy="634.79707"
     inkscape:document-units="px"
     inkscape:current-layer="g5151"
     showgrid="false"
     inkscape:window-width="1920"
     inkscape:window-height="1137"
     inkscape:window-x="1271"
     inkscape:window-y="-9"
     inkscape:window-maximized="1" />
  <metadata
     id="metadata5137">
    <rdf:RDF>
      <cc:Work
         rdf:about="">
        <dc:format>image/svg+xml</dc:format>
        <dc:type
           rdf:resource="http://purl.org/dc/dcmitype/StillImage" />
        <dc:title></dc:title>
      </cc:Work>
    </rdf:RDF>
  </metadata>
  <g
     inkscape:label="Layer 1"
     inkscape:groupmode="layer"
     id="layer1">
    <g
       id="g5151"
       transform="translate(80,925.71429)">
      <path
         style="fill:#000000"
         d="m 325.83929,-780.72617 c -7.35233,0.15872 -13.52054,5.08297 -14.52268,12.39435 -0.74505,5.43575 3.10419,11.60616 8.67426,13.89671 2.96308,1.21847 3.16176,1.64931 0.98367,2.09252 -3.98067,0.81007 -8.57212,5.26165 -10.44488,10.12301 -0.7902,2.05115 -1.60925,30.02952 -0.93002,31.7996 0.26865,0.70007 2.9009,0.82277 16.651,0.82277 l 16.32907,0 0,-14.48696 c 0,-16.00591 -0.35429,-18.38014 -3.41604,-22.60674 -1.72516,-2.38154 -6.88364,-5.82074 -8.74581,-5.83047 -1.63724,-0.009 -1.14395,-0.85975 0.93003,-1.60972 7.20417,-2.60504 10.90855,-9.66297 8.88888,-16.93713 -0.87291,-3.14383 -5.87397,-8.05235 -9.15716,-8.97831 -1.77234,-0.49986 -3.54364,-0.71626 -5.24032,-0.67963 z m -79.67801,0.66174 c -3.76422,0.0179 -7.5744,1.40405 -10.55219,4.38185 -3.9785,3.9785 -5.12584,10.30449 -2.77222,15.16654 1.45908,3.01402 5.13362,6.27002 8.08406,7.15403 2.43345,0.72902 2.27795,1.15586 -0.76903,2.12835 -2.95404,0.94267 -6.60609,4.29614 -8.40599,7.70844 l -1.53811,2.93315 -0.17885,15.88195 -0.17886,15.88194 16.38273,0 16.36482,0 -0.16094,-16.1681 c -0.19946,-18.34751 -0.26894,-18.58199 -5.1509,-23.07175 -2.2419,-2.06168 -3.42541,-2.7282 -7.04672,-3.95257 -0.93689,-0.31678 -0.64089,-0.5836 1.66334,-1.46663 6.81458,-2.61151 10.65796,-9.73747 8.71,-16.16808 -2.01171,-6.64116 -8.1774,-10.43889 -14.45114,-10.40912 z m 173.05598,19.69147 c -0.4365,0.002 -0.86581,0.0277 -1.25196,0.0894 -7.95311,1.27173 -13.07399,6.6721 -13.07399,13.77153 0,5.52846 2.81394,9.76176 8.19136,12.30493 l 3.30874,1.57389 -2.68276,1.01942 c -3.23362,1.2349 -7.25493,4.82473 -8.94253,7.97674 -1.17252,2.18988 -1.24718,3.17342 -1.41293,18.33223 l -0.16096,16.02503 16.32907,-0.161 16.34696,-0.16099 0,-14.84455 c 0,-13.51786 -0.10345,-15.10811 -1.16253,-17.93876 -1.42125,-3.79868 -5.40573,-7.73872 -9.35389,-9.24656 l -2.75431,-1.05525 3.3624,-1.5202 c 5.52239,-2.50683 8.19136,-6.58342 8.19136,-12.48384 0,-4.22631 -1.70352,-7.68537 -5.07936,-10.26597 -2.6869,-2.05401 -6.79922,-3.4309 -9.85467,-3.41608 z m -264.78855,0.76909 c -3.0554,-0.0148 -7.16776,1.36207 -9.85465,3.41602 -3.37584,2.5806 -5.07936,6.03972 -5.07936,10.26603 0,5.90042 2.66903,9.97701 8.19137,12.48378 l 3.36239,1.52026 -2.7543,1.05519 c -3.94817,1.50784 -7.93262,5.44794 -9.35387,9.24661 -1.05919,2.83083 -1.16255,4.43047 -1.16255,17.95662 l 0,14.84455 16.1681,0.161 16.16811,0.14308 0.17885,-3.43394 c 0.0976,-1.88866 0.0976,-9.09992 0,-16.02502 -0.16403,-11.62748 -0.28622,-12.76039 -1.43081,-14.8983 -1.6876,-3.15195 -5.70891,-6.74178 -8.94253,-7.97668 l -2.66485,-1.01948 3.30871,-1.55597 c 5.37737,-2.54312 8.19136,-6.79433 8.19136,-12.32285 0,-7.09943 -5.13877,-12.49975 -13.09187,-13.77151 -0.38615,-0.0617 -0.79759,-0.0873 -1.2341,-0.0894 z m 137.33951,53.97657 c -31.79777,-0.10499 -52.79567,-0.53454 -84.50694,5.67012 -23.25475,6.06243 -41.96268,25.80596 -49.89942,49.79205 -10.37454,31.35387 0.7023,66.50008 27.22114,86.40276 10.42302,7.82273 24.86552,13.64731 37.48712,15.13083 24.55554,1.54911 39.17421,4.1031 67.52953,1.7186 24.32084,-1.82847 47.33468,1.60572 68.87989,-3.39986 11.23275,-2.6067 19.46935,-6.10376 28.41939,-12.03662 6.69434,-4.43762 15.29025,-12.73755 19.72723,-19.04758 6.51624,-9.26704 11.70254,-21.93248 13.539,-33.1053 1.50378,-9.14828 0.94645,-22.28108 -1.32349,-30.9948 -7.43939,-28.55797 -27.8464,-48.98627 -56.803,-56.87454 -23.34584,-4.60274 -49.83065,-2.97371 -70.27045,-3.25566 z m 162.46801,43.97995 c -4.14096,-0.034 -8.37497,1.58029 -11.51799,5.1509 -3.70567,4.20983 -4.40279,9.13873 -2.02101,14.25437 1.45879,3.13324 4.55671,5.86574 8.11982,7.15403 2.07393,0.74998 2.56721,1.60108 0.93003,1.60972 -1.86223,0.01 -7.0206,3.44893 -8.7458,5.83047 -3.06176,4.22661 -3.41605,6.60083 -3.41605,22.60674 l 0,14.48696 16.59734,0 16.59735,0 0,-13.89673 c 0,-15.22806 -0.46315,-18.59406 -3.20143,-22.7319 -1.66133,-2.51043 -5.93049,-5.6166 -8.38809,-6.11675 -2.19383,-0.44641 -1.98267,-0.86403 1.09098,-2.12829 5.51135,-2.26692 9.33018,-8.42281 8.58484,-13.86091 -1.0539,-7.6888 -7.7284,-12.30195 -14.62999,-12.35861 z m -334.82644,0.76908 c -6.90163,0.0567 -13.57617,4.66975 -14.63004,12.35856 -0.74534,5.43809 3.05568,11.59399 8.56697,13.86091 3.07366,1.26426 3.30271,1.68188 1.10888,2.12835 -2.45761,0.50009 -6.72673,3.60626 -8.38813,6.11669 -2.73822,4.13784 -3.2014,7.50384 -3.2014,22.7319 l 0,13.89673 16.59735,0 16.59735,0 0,-14.48691 c 0,-16.00596 -0.37218,-18.38013 -3.43394,-22.60673 -1.7252,-2.38155 -6.86575,-5.8208 -8.72791,-5.83053 -1.63719,-0.009 -1.14396,-0.85969 0.93002,-1.60966 9.41419,-3.40417 12.48092,-14.158 6.09884,-21.4084 -3.14302,-3.57067 -7.37706,-5.18496 -11.51799,-5.15091 z m 300.14728,96.5794 c -8.41852,0 -14.66576,5.74669 -14.66576,13.48529 0,5.80375 3.45783,10.77271 8.99619,12.89517 2.2727,0.8709 2.58739,1.13749 1.66332,1.4308 -3.08276,0.97862 -6.30482,3.04682 -8.29868,5.3119 -3.73641,4.2448 -4.00626,5.79471 -4.00626,22.85707 l 0,15.05929 16.31119,0 16.31119,0 0,-15.05929 c 0,-12.59356 -0.1638,-15.53129 -0.9658,-17.88508 -1.20485,-3.53603 -5.86335,-8.3638 -9.06773,-9.38963 -3.26063,-1.0438 -3.43622,-1.45971 -0.96579,-2.19989 2.94351,-0.8819 6.91551,-4.37736 8.20925,-7.22557 1.35102,-2.97454 1.39955,-8.32976 0.10731,-11.05292 -2.41148,-5.082 -7.62007,-8.22714 -13.62843,-8.22714 z m -265.46815,0.76903 c -6.00835,0 -11.21689,3.1452 -13.62842,8.22714 -1.29219,2.72316 -1.24372,8.07844 0.10731,11.05297 1.29373,2.84822 5.26571,6.34362 8.20922,7.22557 2.47043,0.74013 2.29489,1.15609 -0.96574,2.19989 -3.20438,1.02584 -7.88082,5.85355 -9.08562,9.38964 -0.80199,2.35379 -0.94793,5.29152 -0.94793,17.88507 l 0,15.05924 16.31118,0 16.31119,0 0,-15.05924 c 0,-17.06241 -0.26979,-18.61226 -4.00626,-22.85712 -1.9938,-2.26508 -5.21591,-4.33323 -8.29867,-5.3119 -0.92407,-0.29331 -0.60941,-0.55984 1.66334,-1.4308 5.53831,-2.1224 8.99616,-7.09136 8.99616,-12.89511 0,-7.7386 -6.24724,-13.48535 -14.66576,-13.48535 z m 91.46427,19.06549 c -3.22824,0.13404 -6.47651,1.29276 -9.2287,3.64856 -4.79217,4.10189 -6.05637,10.45696 -3.21931,16.15025 1.57778,3.16603 5.13653,6.26063 7.83366,6.81418 2.23744,0.45923 2.44782,1.17418 0.46501,1.60966 -1.91213,0.41997 -5.83557,3.10759 -7.83366,5.36552 -0.73572,0.83136 -1.86772,2.86047 -2.50391,4.52495 -1.05342,2.75573 -1.14465,4.35389 -1.14465,17.88508 l 0,14.86246 16.32911,0 16.3469,0 -0.1788,-15.88194 c -0.15367,-14.47312 -0.2734,-16.08501 -1.30564,-18.17124 -1.70523,-3.44629 -5.41348,-6.84852 -8.92462,-8.1735 -2.4967,-0.9421 -2.87363,-1.24091 -1.9495,-1.55598 3.67837,-1.25401 4.80453,-1.9254 6.97518,-4.09571 2.85554,-2.85497 4.47212,-7.43149 3.84532,-10.89198 -1.39967,-7.72641 -8.40421,-12.38517 -15.50639,-12.09031 z m 80.33975,0.55447 c -3.96455,0.029 -7.98809,1.56713 -11.01721,4.93628 -3.24901,3.61381 -4.28635,7.42777 -3.21931,11.87569 0.90908,3.7894 4.7289,8.18043 8.31656,9.55057 2.80449,1.07104 2.87875,1.68017 0.26828,2.25358 -2.94386,0.64655 -7.14631,4.46171 -8.94254,8.11976 l -1.62754,3.32668 -0.19674,15.30963 -0.19673,15.29171 16.50792,0.16099 16.50792,0.14308 0.17885,-3.14777 c 0.0983,-1.73134 0.0983,-8.68499 0,-15.45271 -0.16729,-11.51146 -0.26939,-12.50318 -1.53811,-15.30962 -1.93554,-4.28166 -5.50986,-7.31239 -10.65951,-9.03199 -0.94925,-0.31701 -0.66143,-0.59871 1.71697,-1.66334 5.45979,-2.44393 8.85311,-7.2701 8.85311,-12.62681 0,-8.39379 -7.38323,-13.79113 -14.95192,-13.73573 z"
         id="path5153-2-7"
         inkscape:connector-curvature="0"
         sodipodi:nodetypes="ssscccscsscsssscsccccccccccccsscccsccccccccsscccsccccssccccscccccccccsccccsscccssssccsssccsscccsscscssssccscccsscssssscccscccssssccssscccsscccsscsssssccsccscccccccccsssssccccccccsccsss" />
    </g>
  </g>
</svg>
