<?xml version="1.0" encoding="UTF-8" standalone="no"?>
<!-- Created with Inkscape (http://www.inkscape.org/) -->

<svg
   xmlns:dc="http://purl.org/dc/elements/1.1/"
   xmlns:cc="http://creativecommons.org/ns#"
   xmlns:rdf="http://www.w3.org/1999/02/22-rdf-syntax-ns#"
   xmlns:svg="http://www.w3.org/2000/svg"
   xmlns="http://www.w3.org/2000/svg"
   xmlns:sodipodi="http://sodipodi.sourceforge.net/DTD/sodipodi-0.dtd"
   xmlns:inkscape="http://www.inkscape.org/namespaces/inkscape"
   width="744.09448819"
   height="1052.3622047"
   id="svg3016"
   version="1.1"
   inkscape:version="0.48.4 r9939"
   sodipodi:docname="LEADER.svg"
   inkscape:export-filename="C:\bin\CardMaker\MonEntrepriseAgile\Activities\LEADER.png"
   inkscape:export-xdpi="300"
   inkscape:export-ydpi="300">
  <defs
     id="defs3018" />
  <sodipodi:namedview
     id="base"
     pagecolor="#ffffff"
     bordercolor="#666666"
     borderopacity="1.0"
     inkscape:pageopacity="0.0"
     inkscape:pageshadow="2"
     inkscape:zoom="0.24748737"
     inkscape:cx="315.91342"
     inkscape:cy="-29.352048"
     inkscape:document-units="px"
     inkscape:current-layer="layer1"
     showgrid="false"
     inkscape:window-width="1920"
     inkscape:window-height="1137"
     inkscape:window-x="-30720"
     inkscape:window-y="-32000"
     inkscape:window-maximized="0" />
  <metadata
     id="metadata3021">
    <rdf:RDF>
      <cc:Work
         rdf:about="">
        <dc:format>image/svg+xml</dc:format>
        <dc:type
           rdf:resource="http://purl.org/dc/dcmitype/StillImage" />
        <dc:title></dc:title>
      </cc:Work>
    </rdf:RDF>
  </metadata>
  <g
     inkscape:label="Layer 1"
     inkscape:groupmode="layer"
     id="layer1">
    <path
       inkscape:connector-curvature="0"
       id="path3041-4"
       d="m 230.35095,463.22302 c -0.8773,-1.39969 -2.983,-15.58859 -5.5717,-37.54506 -2.2888,-19.41228 -4.3913,-35.89412 -4.6723,-36.62631 -0.2809,-0.73219 -2.3965,-1.58413 -4.7013,-1.8932 -4.7657,-0.63909 -9.701,-5.2052 -9.6749,-8.95121 0.01,-1.22882 1.5678,-15.73422 3.4649,-32.23422 l 3.4492,-30 3.051,-2.75 3.0509,-2.75 21.2617,0 c 23.1492,0 24.3651,0.2615 26.5496,5.71017 1.1809,2.94524 7.1571,53.31219 7.1571,60.31908 0,2.25623 -0.4633,4.96799 -1.0296,6.02614 -1.3036,2.43583 -6.0944,4.94461 -9.4422,4.94461 -1.7311,0 -2.867,0.735 -3.4771,2.25 -0.4983,1.2375 -2.5554,16.65 -4.5714,34.25 -4.0414,35.28196 -4.716,39.40014 -6.6561,40.63018 -0.728,0.46156 -4.8007,0.84609 -9.0505,0.85451 -6.9373,0.0138 -7.8711,-0.21462 -9.1373,-2.23469 z m 212.3069,0.68097 c -0.8027,-0.9673 -2.9587,-15.44455 -5.6218,-37.75 -2.3758,-19.89953 -4.5061,-36.67901 -4.7339,-37.28772 -0.2279,-0.60871 -2.2974,-1.35932 -4.5989,-1.66803 -4.5809,-0.61442 -8.4941,-3.62093 -9.3974,-7.22004 -0.7517,-2.99491 5.9716,-61.81883 7.3627,-64.41805 2.5564,-4.77676 4.1814,-5.08713 26.6343,-5.08713 19.7191,0 21.316,0.13641 23.7184,2.02609 1.4166,1.11434 2.8202,2.80184 3.1191,3.75 0.8474,2.68833 6.5748,54.84147 6.5748,59.869 0,2.46752 -0.4633,5.35215 -1.0296,6.4103 -1.2914,2.41293 -6.0846,4.94461 -9.3617,4.94461 -1.3698,0 -2.8013,0.50264 -3.181,1.11698 -0.3797,0.61433 -2.6427,17.53945 -5.029,37.61136 -2.3862,20.07191 -4.8572,37.11927 -5.4911,37.88302 -1.7294,2.08377 -17.208,1.93654 -18.9649,-0.18039 z m -105.6578,-2.90719 c -1.9518,-0.84863 -3.3982,-2.30676 -3.681,-3.71085 -0.6034,-2.9961 -1.6384,-12.89988 -7.6616,-73.31293 -2.7417,-27.5 -5.9201,-55.625 -7.0631,-62.5 l -2.0781,-12.5 -17.0924,-34 c -29.9251,-59.52658 -27.1992,-53.35561 -25.5978,-57.94985 2.8142,-8.07316 12.6188,-10.97111 18.4821,-5.46277 1.3181,1.23823 6.5613,10.49114 11.6517,20.56201 5.0904,10.07088 9.8051,18.52568 10.4771,18.78845 0.6721,0.26277 2.5176,0.0261 4.1013,-0.52602 1.7431,-0.60763 13.7856,-0.88698 30.5131,-0.70781 l 27.6337,0.29599 3.6421,3.64372 3.6421,3.64373 3.8932,26.35627 c 5.0977,34.51172 5.6629,41.97092 3.4371,45.36786 -2.5043,3.82207 -7.5105,6.48042 -12.2119,6.48468 -2.2702,0.002 -4.5635,0.56624 -5.0962,1.25374 -0.5328,0.6875 -2.4172,16.1 -4.1876,34.25 -1.7705,18.15 -3.6251,36.6 -4.1215,41 -0.4964,4.4 -1.6325,15.875 -2.5247,25.5 -1.9464,20.99874 -2.4429,22.62798 -7.3075,23.97917 -5.1529,1.4313 -15.0614,1.19192 -18.8501,-0.45539 z m -184.5614,-9.27689 c -1.1785,-1.3022 -2.5365,-9.85438 -5.2798,-33.25 -2.0313,-17.32329 -4.1422,-32.05939 -4.6909,-32.74689 -0.5487,-0.6875 -2.313,-1.25 -3.9207,-1.25 -1.7701,0 -3.8911,-0.96813 -5.3775,-2.45455 -3.1353,-3.13524 -3.1174,-4.53549 0.4527,-35.47939 3.6384,-31.53551 1.3791,-29.06606 26.5927,-29.06606 25.1831,0 22.9107,-2.48233 26.593,29.0507 3.5895,30.73797 3.6099,32.33734 0.4525,35.49475 -1.4864,1.48642 -3.6075,2.45455 -5.3776,2.45455 -1.6076,0 -3.3604,0.5625 -3.8951,1.25 -0.5347,0.6875 -2.6486,15.425 -4.6978,32.75 -2.7528,23.27486 -4.1381,31.95695 -5.3053,33.25 -2.2449,2.48698 -13.2947,2.48477 -15.5462,-0.003 z m 370.95423,-0.0505 c -1.23727,-1.36716 -2.52347,-9.41363 -5.31488,-33.25 -2.02543,-17.29549 -4.11575,-32.00885 -4.64515,-32.69635 -0.5294,-0.6875 -2.2779,-1.25 -3.8856,-1.25 -4.0232,0 -7.8248,-3.96937 -7.8577,-8.20455 -0.014,-1.8125 1.1986,-14.54545 2.6948,-28.29545 2.6357,-24.22183 2.8053,-25.0856 5.4487,-27.75 l 2.7283,-2.75 18.52114,0 c 25.32286,0 22.96839,-2.60355 26.69487,29.51899 3.6447,31.41754 3.64887,31.91753 0.2918,35.02876 -1.46606,1.3587 -3.86412,2.45225 -5.37756,2.45225 -1.50234,0 -3.18108,0.5625 -3.73053,1.25 -0.54944,0.6875 -2.6695,15.425 -4.71123,32.75 -2.72384,23.11298 -4.12925,31.96595 -5.27844,33.25 -2.25628,2.52107 -13.2828,2.4831 -15.57852,-0.0537 z M 152.47615,308.41059 c -6.814,-3.59757 -9.6608,-13.13178 -6.1377,-20.55613 4.6132,-9.72154 19.5358,-11.28364 26.0615,-2.72811 3.5583,4.66516 4.2362,12.38874 1.5227,17.34667 -3.9565,7.22867 -13.8257,9.96103 -21.4465,5.93757 z m 370.84313,-0.20402 c -7.03649,-4.03407 -9.64163,-13.23159 -5.85255,-20.66247 2.43908,-4.78333 6.26336,-7.27001 12.03321,-7.82442 9.28545,-0.89221 16.11433,4.64772 16.9923,13.785 1.20049,12.49369 -12.19773,20.99407 -23.17296,14.70189 z M 231.93785,300.8121 c -12.2321,-6.0291 -13.2785,-24.19721 -1.8021,-31.29001 13.786,-8.52022 30.1927,3.20719 27.1533,19.40897 -0.8165,4.35212 -5.8734,10.35135 -10.2761,12.19092 -4.3298,1.8091 -11.0566,1.67083 -15.0751,-0.30988 z m 211.6078,-0.36587 c -4.4907,-2.37219 -7.7838,-6.8192 -8.9747,-12.11943 -2.785,-12.39514 10.0094,-24.60761 22.0126,-21.01138 11.6606,3.49363 16.7591,16.29207 10.6458,26.72369 -4.5124,7.69977 -15.5725,10.69183 -23.6837,6.40712 z m -104.6934,-66.34235 c -5.1086,-1.84873 -11.1715,-7.45446 -13.3231,-12.31849 -2.3993,-5.42412 -2.5799,-14.49195 -0.3901,-19.58542 2.6192,-6.09182 8.6876,-11.41277 15.1629,-13.2952 15.5772,-4.52842 30.3294,6.56392 30.3913,22.85149 0.063,16.51151 -16.2774,27.97982 -31.841,22.34762 z"
       style="fill:#000000;fill-opacity:1"
       sodipodi:nodetypes="cscscscccscssscsssccscsccsccscsssccscsscsccsccscccssccssssscssscsssssssscccssscsscsssssssccssscsssssssscssssssssscscs" />
  </g>
</svg>
