<?xml version="1.0" encoding="UTF-8" standalone="no"?>
<!-- Created with Inkscape (http://www.inkscape.org/) -->

<svg
   xmlns:dc="http://purl.org/dc/elements/1.1/"
   xmlns:cc="http://creativecommons.org/ns#"
   xmlns:rdf="http://www.w3.org/1999/02/22-rdf-syntax-ns#"
   xmlns:svg="http://www.w3.org/2000/svg"
   xmlns="http://www.w3.org/2000/svg"
   xmlns:sodipodi="http://sodipodi.sourceforge.net/DTD/sodipodi-0.dtd"
   xmlns:inkscape="http://www.inkscape.org/namespaces/inkscape"
   width="744.09448819"
   height="1052.3622047"
   id="svg5058"
   version="1.1"
   inkscape:version="0.48.4 r9939"
   sodipodi:docname="RETROSPECTIVE.svg"
   inkscape:export-filename="C:\bin\CardMaker\MonEntrepriseAgile\Activities\RETROSPECTIVE.png"
   inkscape:export-xdpi="300"
   inkscape:export-ydpi="300">
  <defs
     id="defs5060" />
  <sodipodi:namedview
     id="base"
     pagecolor="#ffffff"
     bordercolor="#666666"
     borderopacity="1.0"
     inkscape:pageopacity="0.0"
     inkscape:pageshadow="2"
     inkscape:zoom="0.98994949"
     inkscape:cx="631.75625"
     inkscape:cy="514.8171"
     inkscape:document-units="px"
     inkscape:current-layer="g5077"
     showgrid="false"
     inkscape:window-width="1920"
     inkscape:window-height="1137"
     inkscape:window-x="1271"
     inkscape:window-y="-9"
     inkscape:window-maximized="1" />
  <metadata
     id="metadata5063">
    <rdf:RDF>
      <cc:Work
         rdf:about="">
        <dc:format>image/svg+xml</dc:format>
        <dc:type
           rdf:resource="http://purl.org/dc/dcmitype/StillImage" />
        <dc:title></dc:title>
      </cc:Work>
    </rdf:RDF>
  </metadata>
  <g
     inkscape:label="Layer 1"
     inkscape:groupmode="layer"
     id="layer1">
    <g
       id="g5077"
       transform="matrix(0.39332993,0,0,0.39332993,529.68052,310.25429)">
      <path
         style="fill:#cfcfcf"
         d="m -382.85712,454.42493 0,-62.14706 -12.75,-0.6776 c -74.25271,-3.94613 -139.80691,-28.3835 -195.76781,-72.97857 -13.15698,-10.48476 -42.1757,-39.47199 -52.09452,-52.03798 -28.96003,-36.68902 -50.51833,-79.51892 -61.91533,-123.00724 -7.78865,-29.71973 -10.82535,-53.666 -10.84252,-85.5 -0.0212,-39.25621 5.2685,-71.10073 17.97019,-108.18309 7.66693,-22.38348 19.8487,-48.34915 30.82835,-65.71123 l 2.77894,-4.39432 30.57828,30.57829 30.57829,30.57828 -4.7253,10.04586 c -33.43843,71.08931 -32.02238,152.82178 3.84223,221.76934 12.59641,24.21582 27.42298,44.142 47.15807,63.37809 19.15348,18.66918 36.33995,31.25495 58.58589,42.90286 33.29589,17.43362 64.86556,25.83967 107.01772,28.49559 l 8.74249,0.55084 0.25751,-62.50767 0.25752,-62.50767 83.25001,83.25465 83.25,83.25466 -83.5,83.49551 -83.50001,83.49552 0,-62.14706 z m 251.06323,-248.7852 -30.42448,-30.43675 4.62688,-9.83664 c 24.03267,-51.09288 30.28405,-107.03367 18.13589,-162.28986 -7.79261,-35.44486 -25.83211,-72.72281 -49.11777,-101.5 -40.70921,-50.30978 -99.6255,-83.20552 -162.78375,-90.88982 -6.6,-0.80301 -16.3875,-1.70675 -21.75,-2.00831 l -9.75,-0.54829 0,62.72097 0,62.72096 -83.50001,-83.49552 -83.5,-83.49551 83.25,-83.25466 83.25001,-83.25466 0.25757,62.00242 0.25757,62.00242 3.24243,0.0155 c 9.12756,0.0436 34.83307,2.286 46.74243,4.07763 59.88531,9.00906 116.58346,34.44921 163.5,73.36157 11.39878,9.45409 33.26116,31.34802 42.8341,42.89591 17.51132,21.124 29.90051,40.23674 42.56933,65.67149 44.16107,88.66061 46.35073,191.5857 6.01552,282.761 -6.80459,15.38135 -21.7395,43.2169 -23.18764,43.2169 -0.13398,0 -13.93462,-13.69654 -30.66808,-30.43675 z"
         id="path5091"
         inkscape:connector-curvature="0" />
      <path
         style="fill:#afafaf"
         d="m -382.85712,454.414 0,-62.15798 -8.75,-0.57906 c -47.95591,-3.17363 -72.18168,-7.99344 -109.75,-21.83519 -87.42826,-32.21227 -161.53436,-106.87818 -194.29753,-195.76529 -28.36825,-76.96363 -27.48233,-162.09573 2.47154,-237.5 7.45125,-18.75737 21.57478,-46.8802 27.50154,-54.76116 1.19772,-1.59265 4.22175,1.13778 31.60502,28.53663 l 30.28056,30.29778 -5.43026,11.96338 c -21.66606,47.7323 -28.41898,99.22736 -19.52295,148.87412 19.2493,107.42611 105.23739,189.81569 212.89208,203.98278 6.325,0.83236 16.3341,1.81284 22.24244,2.17886 l 10.74245,0.66548 0.25755,-62.62135 0.25756,-62.62135 83.25001,83.25465 83.25,83.25466 -83.5,83.49551 -83.50001,83.49552 0,-62.15799 z m 251.05928,-248.77822 -30.42843,-30.4407 5.22304,-10.99915 c 22.16427,-46.67553 29.09255,-100.2215 19.61794,-151.61945 -19.5856,-106.24824 -105.55475,-187.94191 -212.47183,-201.90503 -6.325,-0.82603 -16.3375,-1.80157 -22.25,-2.16787 l -10.75,-0.666 0,62.8672 0,62.86721 -83.50001,-83.49552 -83.5,-83.49551 83.25,-83.25466 83.25001,-83.25466 0.25752,61.86075 0.25752,61.86075 6.13917,0.64167 c 3.37654,0.35292 8.66342,0.64167 11.74861,0.64167 12.47189,0 42.42604,4.28186 60.09718,8.59071 58.99747,14.3857 110.98214,43.12144 154.28751,85.28603 53.33676,51.93171 87.00935,117.74042 97.68445,190.91159 9.75802,66.88509 -1.35852,136.0905 -31.53819,196.33923 -5.47189,10.92372 -16.0832,29.87244 -16.72861,29.87244 -0.1196,0 -13.91025,-13.69831 -30.64588,-30.4407 z"
         id="path5089"
         inkscape:connector-curvature="0" />
      <path
         style="fill:#8d8d8d"
         d="m -382.85712,453.97217 0,-62.59979 -16.25,-0.58775 c -68.73367,-2.48604 -137.10297,-28.42461 -193.25,-73.31694 -14.10962,-11.28134 -38.60987,-35.78159 -49.89121,-49.89121 -38.21898,-47.80065 -61.47574,-101.23712 -70.84445,-162.77753 -2.98382,-19.59986 -3.23958,-71.63023 -0.44351,-90.22247 5.80791,-38.61907 16.19822,-72.50857 31.87023,-103.94931 5.42564,-10.88475 15.99978,-29.55069 16.74029,-29.55069 0.3294,0 14.24154,13.43965 30.91587,29.8659 l 30.31696,29.8659 -2.95924,5.8841 c -5.66372,11.26161 -14.12659,33.97091 -17.65822,47.3841 -5.82123,22.10912 -7.83917,38.1447 -7.92803,63 -0.10219,28.58637 2.3809,46.57184 10.00943,72.5 23.95562,81.42138 90.25001,146.60217 171.87188,168.98481 19.50168,5.34782 46.96288,9.51158 62.75,9.51435 l 4.75,8.4e-4 0,-62.74774 0,-62.74774 83,82.99548 c 45.65,45.64752 83,83.44752 83,84 0,0.55248 -37.35,38.35248 -83,84 l -83,82.99548 0,-62.59979 z m 251.30749,-249.14569 -30.18022,-30.25 2.09601,-4 c 6.91315,-13.19294 16.03774,-38.72107 20.19497,-56.5 4.50305,-19.25787 5.95213,-32.84637 5.97185,-56 0.0189,-22.22455 -1.32246,-35.62465 -5.41158,-54.06028 -19.86371,-89.55464 -87.44572,-161.15834 -175.9125,-186.38074 -17.88077,-5.09791 -47.40462,-9.55534 -63.30851,-9.55814 l -4.74248,-8.4e-4 -0.25752,62.50242 -0.25751,62.50241 -83.25001,-83.25465 -83.25,-83.25466 83.5,-83.49551 83.50001,-83.49552 0,62.5998 0,62.59981 16.25,0.58921 c 93.02408,3.37299 183.72225,49.34336 243.08851,123.20944 38.08662,47.38903 61.7286,101.59313 70.77768,162.27239 2.63669,17.68051 3.66977,58.53182 1.94617,76.95768 -3.68438,39.38721 -14.09595,77.19053 -31.15123,113.10686 -6.18942,13.03417 -17.83683,34.16032 -18.83349,34.16032 -0.32447,0 -14.17103,-13.6125 -30.77015,-30.25 z"
         id="path5087"
         inkscape:connector-curvature="0" />
      <path
         style="fill:#757575"
         d="m -382.85712,453.82422 0,-62.74774 -10.02844,0 c -34.72508,0 -82.69035,-10.21458 -117.58289,-25.04019 -106.59277,-45.29056 -180.63444,-137.64869 -200.78862,-250.45981 -4.33515,-24.26562 -5.94474,-63.8523 -3.5636,-87.64405 4.92379,-49.19701 19.32998,-94.36011 43.53514,-136.48161 3.12086,-5.43089 5.86134,-10.07921 6.08995,-10.32961 0.22861,-0.25039 14.09078,13.21434 30.80481,29.92164 l 30.38916,30.3769 -2.96857,5.88069 c -11.44991,22.68215 -19.98165,51.10412 -24.09737,80.27604 -1.67331,11.86027 -1.63531,49.30333 0.0624,61.5 6.44209,46.28099 23.72836,87.51823 51.93159,123.88528 8.15261,10.51249 29.02156,31.63083 39.21644,39.68508 42.5999,33.65515 90.82783,51.99003 144.77353,55.03875 l 12.21122,0.69011 0.25762,-62.39961 0.25763,-62.39961 82.75,82.68172 c 45.5125,45.47495 82.75,83.05097 82.75,83.50226 0,0.4513 -37.35,38.1685 -83,83.81602 l -83,82.99548 0,-62.74774 z m 251.31283,-248.99774 -30.17488,-30.25 3.06185,-5.97702 c 10.89069,-21.25964 19.8173,-51.03131 23.99374,-80.02298 1.68328,-11.68486 1.64607,-49.08765 -0.0612,-61.5 -4.89382,-35.57984 -18.41711,-73.81198 -35.72523,-101 -14.18632,-22.28421 -37.26251,-48.29358 -55.90711,-63.01338 -41.90618,-33.08466 -91.42435,-51.79488 -144.65445,-54.65704 l -11.84555,-0.63693 0,62.69733 0,62.69734 -82.99257,-83.29366 c -45.64591,-45.81151 -82.99591,-83.51968 -83,-83.79592 -0.004,-0.27624 37.34257,-37.85022 82.99257,-83.49774 l 83,-82.99548 0,62.59839 0,62.5984 15.75,0.59484 c 69.81905,2.63692 137.09294,28.10615 193.75,73.35183 14.04831,11.21883 38.52608,35.68102 49.88374,49.85202 41.48129,51.75635 66.72497,114.18845 72.57871,179.5 1.32312,14.76247 1.32812,45.36729 0.01,59.5 -3.76988,40.41127 -15.75189,83.02002 -33.17863,117.98522 -4.27716,8.58115 -16.18952,29.51478 -16.79579,29.51478 -0.28068,0 -14.08902,-13.6125 -30.6852,-30.25 z"
         id="path5085"
         inkscape:connector-curvature="0" />
      <path
         style="fill:#4b4b4b"
         d="m -382.85712,453.82573 0,-62.74925 -8.75,-0.003 c -26.15759,-0.0102 -64.67344,-6.4877 -92.57815,-15.56954 -36.77015,-11.96759 -73.14925,-31.09313 -102.87416,-54.08434 -51.2946,-39.67462 -90.55189,-94.91139 -111.46991,-156.84312 -12.75964,-37.77736 -18.12102,-73.88129 -17.05186,-114.82857 1.21822,-46.65611 10.455,-87.00241 29.70341,-129.74467 5.07629,-11.27223 15.42997,-30.72417 19.31044,-36.27945 l 1.99266,-2.85269 30.23309,30.22089 30.23308,30.22089 -5.29945,11.14888 c -9.60157,20.1996 -17.32897,45.87087 -20.95497,69.61472 -0.88192,5.775 -1.85782,19.05 -2.16867,29.5 -1.28296,43.12925 7.6012,82.32381 27.36331,120.71971 40.9565,79.57461 120.57321,130.91865 210.06118,135.46639 l 12.25,0.62254 0,-62.40357 0,-62.40357 83.24925,83.24925 83.24925,83.24925 -83.24925,83.24925 -83.24925,83.24925 0,-62.74925 z m 251.31015,-249.05593 -30.06425,-30.19332 5.30728,-11 c 9.51441,-19.71976 17.32698,-45.77914 21.13582,-70.5 2.48076,-16.10105 2.46029,-53.7096 -0.0384,-70.48604 -14.61893,-98.15464 -85.60733,-179.06365 -180.1506,-205.32665 -19.2957,-5.36012 -44.39171,-9.18731 -60.24387,-9.18731 l -7.25613,0 0,62.24925 0,62.24925 -83.24925,-83.24925 -83.24925,-83.24925 83.24925,-83.24925 83.24925,-83.24925 0,62.74925 0,62.74925 8.75,0.003 c 25.16724,0.01 60.94859,5.81763 90.25,14.64881 21.10657,6.36133 50.67508,19.63713 72.18933,32.41189 44.43994,26.38761 83.85728,65.15674 111.85156,110.01216 9.02433,14.45973 22.60655,41.84558 28.47974,57.42372 8.73747,23.1754 15.51574,50.1428 18.97698,75.5 2.24356,16.43647 3.04639,52.39984 1.55149,69.5 -3.8152,43.64188 -14.83675,83.09114 -33.94531,121.5 -6.61106,13.28845 -14.69316,27.62818 -16.04128,28.46136 -0.37846,0.23391 -14.21703,-13.16171 -30.75236,-29.76804 z"
         id="path5083"
         inkscape:connector-curvature="0" />
      <path
         style="fill:#303030"
         d="m -382.85712,453.28732 0,-62.21084 -7.25,-0.0158 c -17.72115,-0.0387 -43.90102,-3.23903 -65.25,-7.97644 -152.15641,-33.76406 -260.47937,-168.92178 -260.47937,-325.00776 0,-43.14872 9.01602,-88.25913 25.50689,-127.62032 4.69315,-11.20181 18.18275,-37.89177 22.88231,-45.27398 l 2.79744,-4.3943 30.08715,30.08716 30.08716,30.08715 -4.85192,10.80714 c -10.70186,23.83727 -16.16897,41.51863 -20.65691,66.80715 -2.0233,11.4008 -2.30765,16.2599 -2.31149,39.5 -0.005,29.70993 1.46911,41.82376 7.97977,65.57926 22.18465,80.94534 83.64648,145.80171 162.95897,171.95921 21.85592,7.20815 51.67608,12.46153 70.7363,12.46153 l 7.74856,0 0.25757,-62.00243 0.25757,-62.00244 82.8065,82.81119 82.80651,82.81118 -18.38619,18.44125 c -10.1124,10.14269 -47.48783,47.44863 -83.0565,82.90209 l -64.67032,64.46085 0,-62.21085 z m 251.75,-247.95577 c -16.3625,-16.37205 -29.75,-30.15401 -29.75,-30.62656 0,-0.47256 1.62268,-4.2948 3.60595,-8.49386 17.65449,-37.37881 25.32446,-74.3376 24.09846,-116.12164 -1.20023,-40.90536 -10.83391,-76.75026 -29.97025,-111.51301 -32.04277,-58.20835 -84.53791,-100.9749 -147.29438,-119.99724 -20.14672,-6.10674 -47.00139,-10.50276 -64.15992,-10.50276 l -8.27986,0 0,62.24925 0,62.24925 -83.24925,-83.24925 -83.24925,-83.24925 83.24925,-83.24925 83.24925,-83.24925 0,62.74925 0,62.74925 7.25,0.0158 c 3.9875,0.009 12.58805,0.45808 19.11233,0.99861 80.03891,6.63117 152.52806,40.0492 208.9879,96.34493 65.19779,65.0083 100.3571,153.78215 97.28714,245.64063 -1.26484,37.84603 -7.20556,68.67116 -20.14335,104.51948 -6.57166,18.20891 -23.04252,51.92928 -29.66957,60.74174 -1.19781,1.59282 -4.16908,-1.08507 -31.07445,-28.00615 z"
         id="path5081"
         inkscape:connector-curvature="0" />
      <path
         style="fill:#000000"
         d="m -382.85712,453.47317 0,-62.09878 -14.22542,-0.70412 c -49.19347,-2.43492 -92.29855,-13.72113 -135.97925,-35.60344 -30.19309,-15.12556 -56.32985,-33.8464 -81.65847,-58.4891 -55.53995,-54.03586 -88.29764,-120.05975 -98.79309,-199.11977 -2.35747,-17.75833 -2.36603,-59.62371 -0.016,-78.29549 3.28952,-26.13632 9.75647,-52.68646 18.72055,-76.85735 5.43262,-14.64859 17.78946,-40.64737 25.48464,-53.61962 l 4.68095,-7.89097 30.06993,30.06992 30.06992,30.06992 -4.54961,9.82106 c -11.93325,25.75977 -19.84192,53.75576 -22.74963,80.53164 -1.36054,12.52862 -1.35408,41.14096 0.0121,53.57882 6.54951,59.62767 34.28296,114.97553 78.29039,156.24475 14.33861,13.44644 30.03237,24.90522 48.98226,35.76434 31.75413,18.19652 78.6793,31.16118 112.90317,31.1933 l 8.74243,0.008 0.25757,-62.00243 0.25757,-62.00244 82.75001,82.75469 82.75,82.75468 -83,82.99549 -83.00002,82.99569 0,-62.09879 z m 251.5693,-248.32736 -29.92043,-29.9329 4.5483,-9.81822 c 12.243,-26.42843 20.0155,-54.32665 22.89102,-82.1638 1.67706,-16.23528 0.65985,-50.34068 -1.95819,-65.65441 -9.15741,-53.56458 -33.44235,-100.24868 -71.90605,-138.22843 -43.00433,-42.46325 -101.86496,-68.412 -160.96632,-70.9621 l -14.24238,-0.61453 -0.25762,62.15496 -0.25763,62.15497 -82.75001,-82.75469 -82.75,-82.75468 83,-82.99549 83.00001,-82.99549 0,62.24774 0,62.24774 5.85478,0 c 3.22013,0 11.65763,0.46494 18.75,1.0332 80.10216,6.41798 150.65466,38.20914 207.21885,93.3734 21.79941,21.25989 38.10829,41.68982 53.22631,66.67594 56.31191,93.0688 63.22905,207.90445 18.54541,307.88397 -5.34202,11.95276 -17.30582,34.67246 -20.45956,38.85347 -1.62658,2.15641 -2.00028,1.82788 -31.56649,-27.75065 z"
         id="path5079"
         inkscape:connector-curvature="0" />
    </g>
  </g>
</svg>
