<?xml version="1.0" encoding="UTF-8" standalone="no"?>
<!-- Created with Inkscape (http://www.inkscape.org/) -->

<svg
   xmlns:dc="http://purl.org/dc/elements/1.1/"
   xmlns:cc="http://creativecommons.org/ns#"
   xmlns:rdf="http://www.w3.org/1999/02/22-rdf-syntax-ns#"
   xmlns:svg="http://www.w3.org/2000/svg"
   xmlns="http://www.w3.org/2000/svg"
   xmlns:sodipodi="http://sodipodi.sourceforge.net/DTD/sodipodi-0.dtd"
   xmlns:inkscape="http://www.inkscape.org/namespaces/inkscape"
   width="744.09448819"
   height="1052.3622047"
   id="svg3847"
   version="1.1"
   inkscape:version="0.48.4 r9939"
   sodipodi:docname="THEEND.svg"
   inkscape:export-filename="D:\PortableApps\CardMaker\MonEntrepriseAgile\Activities\THEEND.png"
   inkscape:export-xdpi="300"
   inkscape:export-ydpi="300">
  <defs
     id="defs3849" />
  <sodipodi:namedview
     id="base"
     pagecolor="#ffffff"
     bordercolor="#666666"
     borderopacity="1.0"
     inkscape:pageopacity="0.0"
     inkscape:pageshadow="2"
     inkscape:zoom="0.98994948"
     inkscape:cx="673.94319"
     inkscape:cy="536.4775"
     inkscape:document-units="px"
     inkscape:current-layer="layer1"
     showgrid="false"
     inkscape:window-width="1920"
     inkscape:window-height="1137"
     inkscape:window-x="1271"
     inkscape:window-y="-9"
     inkscape:window-maximized="1" />
  <metadata
     id="metadata3852">
    <rdf:RDF>
      <cc:Work
         rdf:about="">
        <dc:format>image/svg+xml</dc:format>
        <dc:type
           rdf:resource="http://purl.org/dc/dcmitype/StillImage" />
        <dc:title></dc:title>
      </cc:Work>
    </rdf:RDF>
  </metadata>
  <g
     inkscape:label="Layer 1"
     inkscape:groupmode="layer"
     id="layer1">
    <path
       inkscape:connector-curvature="0"
       id="path3868"
       d="M 623.72764,617.32156 C 542.06698,410.38544 678.18203,760.77348 583.02927,514.42948 l -16.40344,-42.47601 -7.30142,-4.49395 c -22.15853,-13.63839 -41.18395,-20.59045 -61.25622,-22.38356 -15.96097,-1.42585 -31.56581,2.29436 -46.55436,11.09857 -21.68821,12.73967 -42.21454,34.14122 -77.66911,80.98098 -20.20992,26.6998 -30.95268,39.72443 -42.84456,51.94518 -11.54235,11.86165 -21.08466,19.05849 -34.16883,25.77035 -13.75529,7.0561 -17.12505,7.767 -36.84898,7.7735 -31.51776,0.01 -41.06965,-2.65138 -66.68332,-18.58271 l -9.18236,-5.71126 -23.02951,-59.68142 C 94.413222,365.88218 67.021164,294.25672 58.229071,269.71287 c -1.360346,-3.79777 -2.633705,-6.73997 -2.829729,-6.53825 -0.195931,0.20175 -0.356297,-0.14997 -0.356297,-0.78158 0,-1.09451 0.09196,-1.11453 1.971127,-0.427 1.084092,0.39674 6.819934,3.2711 12.746451,6.38743 16.6218,8.74034 29.520178,13.47258 44.152557,16.19897 8.72772,1.62619 21.41505,1.63182 28.72444,0.0127 7.38586,-1.63606 15.12642,-4.50308 22.27384,-8.25006 22.06187,-11.56569 42.9826,-32.95657 80.9365,-82.7554 37.68751,-49.44931 54.95396,-67.10793 75.80666,-77.5283 8.61643,-4.30578 20.12199,-7.84034 28.7036,-8.81788 1.92956,-0.2198 3.05203,-0.55589 2.66937,-0.7993 -0.36306,-0.23103 1.21358,-0.50162 3.50357,-0.60131 6.43314,-0.28006 17.34312,0.10412 16.58858,0.58417 -0.40031,0.25472 0.74337,0.57934 2.80861,0.79717 12.23946,1.29086 24.72589,5.41124 41.27149,13.61909 13.21057,6.55348 14.4159,6.78212 15.18085,2.87968 0.29305,-1.495 0.851,-2.10193 3.05888,-3.32748 3.83725,-2.13004 10.66507,-3.87809 11.55783,-2.95905 0.37103,0.38191 1.99937,3.97612 3.6187,7.98716 30.11167,74.58763 178.59787,457.10579 187.5976,483.3767 1.67938,1.84789 1.13525,3.51214 1.15133,3.56619 -1.65267,0.61036 -11.08767,3.84784 -15.63739,4.98501 z m -342.71131,1.7598 c 6.83917,-2.38899 14.24408,-6.02819 21.85966,-10.74313 6.7245,-4.16319 22.79126,-15.85238 23.56634,-17.14545 0.73371,-1.22379 -24.18839,-65.58939 -25.49158,-65.8367 -0.48082,-0.0913 -4.51992,2.63381 -8.97583,6.05563 -9.70409,7.45196 -14.94344,10.85933 -23.00183,14.95898 -8.81189,4.48297 -17.45863,7.55879 -21.24924,7.55879 -2.12896,0 -4.89085,1.39485 -5.28346,2.66833 -0.42743,1.38615 0.92175,5.70321 7.19866,23.03371 5.59443,15.4465 10.51211,28.09057 12.5218,32.19521 4.69848,9.59622 8.24531,10.96091 18.85548,7.25463 z m -40.18402,-62.23287 c 0.53834,-0.55417 0.71832,-1.28878 0.49715,-2.02911 -0.47556,-1.59169 -5.98845,-16.24378 -15.15598,-40.28135 -4.23343,-11.1004 -7.83243,-20.87854 -7.99768,-21.72922 -0.38688,-1.99137 -0.35376,-2.0087 11.52311,-6.0153 14.8405,-5.00641 22.46274,-9.20547 37.07212,-20.42295 3.55894,-2.73265 6.70649,-4.96846 6.99447,-4.96846 0.71363,0 2.98362,5.24913 11.21223,25.92661 13.44572,33.78755 14.36757,35.7583 16.72671,35.7583 3.68505,0 14.17286,-11.74474 36.86503,-41.28335 5.44025,-7.08171 10.13855,-12.79106 10.44051,-12.68743 0.30197,0.10355 3.34724,7.35869 6.76739,16.1224 12.3574,31.66499 16.95248,42.26949 18.59752,42.91932 1.36467,0.5391 4.23287,-2.48152 12.77845,-13.45792 9.58727,-12.31416 17.71152,-21.9288 27.89071,-33.00684 4.64865,-5.05925 8.45475,-9.56586 8.45775,-10.01469 0.009,-0.44883 -2.14379,-6.41441 -4.77073,-13.25684 -2.62695,-6.84244 -7.72734,-20.23257 -11.33412,-29.75586 -3.60679,-9.52328 -6.90317,-17.86292 -7.32525,-18.53251 -1.45136,-2.30245 -3.3036,-1.63166 -8.42603,3.0514 -7.09816,6.48933 -15.91953,16.77821 -31.95392,37.26977 -5.17723,6.61641 -9.60743,12.02984 -9.84484,12.02984 -0.75735,0 -2.22524,-3.51484 -12.51299,-29.96209 -11.42655,-29.37484 -13.03096,-33.07557 -14.33942,-33.07557 -0.55673,0 -5.706,6.15927 -13.34465,15.96232 -20.13907,25.84542 -33.7476,41.53527 -34.88368,40.2191 -0.21291,-0.2467 -2.46273,-6.0489 -4.99969,-12.89377 -5.21318,-14.06595 -15.23969,-40.01288 -17.35466,-44.91093 -1.61896,-3.74939 -2.6856,-5.14043 -3.94141,-5.14043 -1.50739,0 -5.78032,2.60743 -11.64622,7.10678 -12.82584,9.83795 -26.3913,16.66425 -40.80118,20.53158 -2.39565,0.64296 -4.86195,1.59097 -5.48052,2.10672 l -1.125,0.9377 1.63979,4.83388 c 0.90177,2.65864 5.70009,15.41708 10.66272,28.3521 10.82356,28.21116 11.69699,30.65929 11.22142,31.45147 -0.4933,0.82162 -14.92083,0.22636 -22.00435,-0.9079 -11.5734,-1.85316 -21.99684,-5.64707 -40.31201,-14.67271 -6.26057,-3.08522 -11.73461,-5.60949 -12.16457,-5.60949 -2.06966,0 -2.19192,-0.36157 14.32469,42.36202 l 9.57834,24.77642 10.45647,5.3872 c 27.18787,14.00738 40.71223,18.09976 60.50438,18.30824 5.48042,0.0577 6.81402,-0.0842 7.50794,-0.79845 z m 317.90265,-95.58166 c 0.36316,-1.0715 -0.96378,-5.16515 -6.18268,-19.07362 -5.60302,-14.93231 -11.77813,-30.32337 -15.11833,-37.68148 -2.67129,-5.8847 -4.58436,-7.86588 -11.17504,-11.57287 -13.48511,-7.58485 -31.93366,-14.0711 -46.0514,-16.19101 -6.79278,-1.02001 -18.57691,-1.10935 -20.38043,-0.15453 -2.84108,1.50419 -3.11621,0.55642 9.90957,34.13828 10.0522,25.91558 12.47586,31.70445 13.37836,31.95387 0.60621,0.16753 4.8929,0.30794 9.52598,0.312 9.59595,0.008 14.85063,0.56961 23.15481,2.47297 10.81266,2.47832 20.68876,6.23305 33.396,12.69666 7.48113,3.80533 9.12325,4.33872 9.54316,3.09973 z m -372.34979,-38.3185 c 1.70547,-1.07032 1.76224,-1.21187 1.44404,-3.60149 -0.4825,-3.62391 -4.10149,-14.42504 -11.10947,-33.15704 -3.39575,-9.0769 -7.14245,-19.51077 -8.32592,-23.18642 -2.09058,-6.49332 -2.12314,-6.70447 -1.14593,-7.44006 0.55317,-0.41639 1.7341,-0.75708 2.62414,-0.75708 4.08789,0 15.88865,-4.57396 25.51336,-9.88891 6.05901,-3.34594 10.30211,-6.1015 18.92248,-12.2888 7.01671,-5.03619 7.90562,-5.53243 8.84276,-4.93622 0.33002,0.21 5.31339,12.54474 11.07401,27.41055 13.12189,33.86182 13.79901,35.41569 15.43336,35.41569 2.33653,0 13.99936,-13.21202 31.76352,-35.98286 11.21692,-14.37827 15.35097,-18.9675 16.23754,-18.02534 0.84903,0.90225 5.32512,11.7173 12.83484,31.01164 6.69692,17.20593 11.84319,28.73414 13.03801,29.20609 1.26998,0.50168 3.67754,-2.21953 20.78278,-23.48967 16.90697,-21.02372 26.69345,-32.06789 27.60066,-31.14792 0.29352,0.2976 3.60106,8.69811 7.35029,18.66781 13.72855,36.5065 17.06875,44.80032 18.22659,45.25772 0.88779,0.35073 3.67773,-1.41562 12.08594,-7.65199 6.63555,-4.9215 11.76023,-8.09286 19.57774,-12.11544 8.07181,-4.15342 13.11945,-5.97633 18.2052,-6.57458 2.27844,-0.26802 4.69125,-0.85726 5.36162,-1.30942 2.75963,-1.86147 2.52241,-6.44736 -0.86029,-16.63057 -1.57542,-4.74249 -17.01695,-44.79468 -19.41203,-50.35072 -1.36776,-3.17304 -1.80184,-3.21268 -10.48086,-0.95708 -16.05428,4.17238 -26.00976,9.2828 -41.98972,21.5546 -3.55902,2.7331 -6.66454,4.96925 -6.90138,4.96925 -0.69777,0 -5.18577,-10.67509 -14.78655,-35.17122 -4.95728,-12.64811 -9.37256,-23.89568 -9.81181,-24.99459 -0.43934,-1.09892 -1.16019,-2.14082 -1.60188,-2.3153 -2.74368,-1.08382 -17.62745,14.62917 -35.23725,37.20028 -4.12786,5.2909 -8.8955,11.13474 -10.5945,12.9863 l -3.08938,3.36646 -2.58331,-5.68151 c -2.63868,-5.80341 -3.85837,-8.795 -14.55872,-35.71232 -6.79168,-17.085 -8.00067,-19.65098 -9.38823,-19.92605 -1.31803,-0.26132 -4.75244,3.63314 -17.32905,19.65034 -17.06132,21.72874 -29.6841,35.78579 -30.95737,34.47497 -0.28976,-0.29832 -5.88447,-14.26339 -12.43275,-31.0335 -11.06969,-28.34986 -11.99802,-30.50084 -13.21976,-30.62999 -0.96417,-0.10186 -3.97388,1.80633 -11.301,7.16515 -17.49767,12.79718 -20.53665,14.3764 -36.98655,19.2206 -5.88776,1.73387 -10.93963,3.39395 -11.22639,3.68909 -0.34457,0.35476 2.50937,8.39287 8.42125,23.71813 11.16296,28.93777 13.90711,36.67486 13.97909,39.4144 l 0.0572,2.16438 -6.04466,-0.0553 c -15.65745,-0.14336 -32.05047,-4.64608 -52.67693,-14.46892 -11.913186,-5.6733 -13.372623,-6.18345 -14.467037,-5.05681 -0.682191,0.70224 -0.711467,1.2208 -0.18955,3.35447 2.463111,10.06988 19.966317,51.7961 25.350367,60.43339 2.01195,3.22762 6.58403,6.42333 15.28464,10.68354 21.26285,10.41122 52.27183,17.55487 58.69718,13.52232 z m 321.74798,-93.41076 c 0,-1.94827 -3.40028,-11.26816 -14.86551,-40.74502 l -9.57607,-24.61985 -8.14722,-4.45356 c -14.14319,-7.73118 -24.38099,-11.8298 -38.93145,-15.58587 -10.7696,-2.78006 -16.24786,-3.61576 -22.34901,-3.40931 -4.46023,0.15095 -5.56121,0.36315 -6.51891,1.25647 -0.93198,0.86932 -1.09319,1.45586 -0.84283,3.06735 0.40452,2.60471 5.84065,17.494 15.62563,42.79871 6.65018,17.19762 8.07922,20.46532 9.03851,20.66828 0.62673,0.13256 5.70872,0.74651 11.2933,1.36425 21.60282,2.38964 32.98963,5.8157 53.23099,16.01608 5.56932,2.8066 10.5573,5.10292 11.08436,5.10292 0.69057,0 0.95821,-0.40797 0.95821,-1.46045 z M 350.26101,270.22718 c 1.4022,-0.9853 5.26966,-3.84725 8.59419,-6.35993 12.11409,-9.15562 21.22785,-13.79848 36.1545,-18.41829 3.96534,-1.22726 7.53309,-2.50072 7.92842,-2.82991 2.10419,-1.75249 -1.78411,-14.12008 -13.96811,-44.42876 -2.74471,-6.82765 -5.93308,-14.45647 -7.0852,-16.95295 -1.15213,-2.49644 -2.01542,-4.58289 -1.9183,-4.63653 0.0971,-0.0536 5.0255,0.0606 10.95192,0.25366 8.71759,0.28411 11.9617,0.61766 16.98758,1.74666 15.11873,3.39619 30.4515,8.98959 37.94048,13.84065 7.41889,4.80577 10.24966,5.44164 10.24966,2.30241 0,-2.81816 -13.17088,-37.41001 -18.68405,-49.07147 -4.22029,-8.92689 -7.10378,-13.07051 -11.67521,-16.77759 -4.96882,-4.02937 -16.68899,-9.79075 -27.1067,-13.3251 -12.03236,-4.08209 -32.60354,-8.58565 -39.21723,-8.58565 -4.252,0 -4.72297,0.6752 -3.5853,5.14019 1.25995,4.94521 6.78822,20.41156 15.43102,43.1707 4.16371,10.96437 7.57006,19.98077 7.56969,20.03647 -3.8e-4,0.0557 -1.95171,0.11076 -4.33637,0.12251 -3.49878,0.0171 -5.29978,0.36376 -9.32921,1.79584 -10.85809,3.85894 -27.38455,13.23578 -39.08876,22.17818 -2.85225,2.17919 -5.35684,3.75906 -5.56581,3.51086 -0.20907,-0.2482 -3.64414,-8.85179 -7.6335,-19.11908 -11.27069,-29.0068 -16.7634,-41.31148 -18.72749,-41.95322 -1.463,-0.47799 -4.03468,1.81438 -11.37982,10.14402 -16.64666,18.87791 -31.95907,38.53897 -34.42922,44.20696 -1.76065,4.03995 -0.87193,8.00392 5.77291,25.74949 4.29893,11.48041 12.18127,31.37023 14.57485,36.77712 1.39507,3.15142 2.04948,4.0756 2.88585,4.0756 1.66953,0 6.27183,-5.22088 20.27166,-22.99657 14.04496,-17.83304 25.79355,-31.11299 27.52521,-31.11299 0.91387,0 1.81019,2.14487 13.54274,32.40845 6.16017,15.89024 11.59771,29.34323 12.08331,29.89555 1.25094,1.423 2.35567,1.25788 5.26629,-0.78721 z"
       style="fill:#000000;fill-opacity:1"
       sodipodi:nodetypes="cccsssssssscsscssssssssscsssscssscccssscsssssssccscssssssssssscsscsssssscssssscccscsssscsscsssssssssssssssscssscssscssscscssscsssssscssscsssscsssscsccsscscsssscsssccsssssscsscsccsssssssssssssscsssssssssscc" />
  </g>
</svg>
