<?xml version="1.0" encoding="UTF-8" standalone="no"?>
<!-- Created with Inkscape (http://www.inkscape.org/) -->

<svg
   xmlns:dc="http://purl.org/dc/elements/1.1/"
   xmlns:cc="http://creativecommons.org/ns#"
   xmlns:rdf="http://www.w3.org/1999/02/22-rdf-syntax-ns#"
   xmlns:svg="http://www.w3.org/2000/svg"
   xmlns="http://www.w3.org/2000/svg"
   xmlns:sodipodi="http://sodipodi.sourceforge.net/DTD/sodipodi-0.dtd"
   xmlns:inkscape="http://www.inkscape.org/namespaces/inkscape"
   width="744.09448819"
   height="1052.3622047"
   id="svg2"
   version="1.1"
   inkscape:version="0.48.4 r9939"
   sodipodi:docname="XP.svg"
   inkscape:export-filename="C:\bin\CardMaker\MonEntrepriseAgile\Activities\XP.png"
   inkscape:export-xdpi="300"
   inkscape:export-ydpi="300">
  <defs
     id="defs4" />
  <sodipodi:namedview
     id="base"
     pagecolor="#ffffff"
     bordercolor="#666666"
     borderopacity="1.0"
     inkscape:pageopacity="0.0"
     inkscape:pageshadow="2"
     inkscape:zoom="0.35"
     inkscape:cx="375"
     inkscape:cy="520"
     inkscape:document-units="px"
     inkscape:current-layer="text3007"
     showgrid="false"
     inkscape:window-width="1920"
     inkscape:window-height="1137"
     inkscape:window-x="-30720"
     inkscape:window-y="-32000"
     inkscape:window-maximized="0" />
  <metadata
     id="metadata7">
    <rdf:RDF>
      <cc:Work
         rdf:about="">
        <dc:format>image/svg+xml</dc:format>
        <dc:type
           rdf:resource="http://purl.org/dc/dcmitype/StillImage" />
        <dc:title></dc:title>
      </cc:Work>
    </rdf:RDF>
  </metadata>
  <g
     inkscape:label="Layer 1"
     inkscape:groupmode="layer"
     id="layer1">
    <g
       style="font-size:338.48873901px;font-style:normal;font-variant:normal;font-weight:normal;font-stretch:normal;text-align:start;line-height:125%;letter-spacing:0px;word-spacing:0px;writing-mode:lr-tb;text-anchor:start;fill:#000000;fill-opacity:1;stroke:none;font-family:Rockwell Condensed;-inkscape-font-specification:'Rockwell Condensed,'"
       id="text3007">
      <path
         d="m 190.89176,369.76047 0,-30.08054 12.5611,0 40.82359,-93.87774 -42.31109,-95.03468 -11.0736,0 0,-30.08054 62.30969,0 0,30.08054 -13.22222,0 24.29583,56.52497 19.9986,-56.52497 -12.89166,0 0,-30.08054 60.32636,0 0,30.08054 -14.87499,0 -36.3611,94.04301 41.64998,94.86941 12.89166,0 0,30.08054 -63.63191,0 0,-30.08054 13.22221,0 -24.62637,-55.53331 -24.4611,55.53331 14.54443,0 0,30.08054 z"
         style=""
         id="path3012" />
      <path
         d="m 369.22639,339.67993 0,-188.91242 -20.32915,0 0,-30.08054 61.64858,0 c 21.48601,2.5e-4 38.31677,6.83172 50.49234,20.49443 12.17533,13.66317 18.26305,32.55991 18.26319,56.69025 -1.4e-4,23.80014 -5.72976,42.42141 -17.18889,55.86387 -11.45936,13.44269 -30.68665,20.16397 -57.68191,20.16388 l 0,65.78053 20.65971,0 0,30.08054 -76.19302,0 0,-30.08054 z m 35.20416,-188.91242 0,93.05135 c 7.93325,1.2e-4 14.46172,-0.85381 19.5854,-2.56181 5.12352,-1.70774 9.44829,-5.92231 12.9743,-12.64374 3.52583,-6.72115 5.28879,-17.07854 5.28889,-31.07221 -10e-5,-18.07017 -3.16792,-30.38335 -9.50347,-36.93957 -6.33573,-6.5558 -15.78409,-9.8338 -28.34512,-9.83402 z"
         style=""
         id="path3014" />
    </g>
  </g>
</svg>
