<?xml version="1.0" encoding="UTF-8" standalone="no"?>
<!-- Created with Inkscape (http://www.inkscape.org/) -->

<svg
   xmlns:dc="http://purl.org/dc/elements/1.1/"
   xmlns:cc="http://creativecommons.org/ns#"
   xmlns:rdf="http://www.w3.org/1999/02/22-rdf-syntax-ns#"
   xmlns:svg="http://www.w3.org/2000/svg"
   xmlns="http://www.w3.org/2000/svg"
   xmlns:sodipodi="http://sodipodi.sourceforge.net/DTD/sodipodi-0.dtd"
   xmlns:inkscape="http://www.inkscape.org/namespaces/inkscape"
   width="20mm"
   height="20mm"
   id="svg4440"
   version="1.1"
   inkscape:version="0.91 r13725"
   sodipodi:docname="ADVERGAME.svg"
   inkscape:export-filename="C:\bin\CardMaker\MonEntrepriseAgile\ProductTeams\ADVERGAME.png"
   inkscape:export-xdpi="300"
   inkscape:export-ydpi="300">
  <defs
     id="defs4442" />
  <sodipodi:namedview
     id="base"
     pagecolor="#ffffff"
     bordercolor="#666666"
     borderopacity="1.0"
     inkscape:pageopacity="0.0"
     inkscape:pageshadow="2"
     inkscape:zoom="1.979899"
     inkscape:cx="249.88204"
     inkscape:cy="-3.7730626"
     inkscape:document-units="px"
     inkscape:current-layer="text4448"
     showgrid="false"
     inkscape:window-width="1680"
     inkscape:window-height="997"
     inkscape:window-x="0"
     inkscape:window-y="0"
     inkscape:window-maximized="1"
     fit-margin-top="0"
     fit-margin-left="0"
     fit-margin-right="0"
     fit-margin-bottom="0"
     units="mm" />
  <metadata
     id="metadata4445">
    <rdf:RDF>
      <cc:Work
         rdf:about="">
        <dc:format>image/svg+xml</dc:format>
        <dc:type
           rdf:resource="http://purl.org/dc/dcmitype/StillImage" />
        <dc:title></dc:title>
      </cc:Work>
    </rdf:RDF>
  </metadata>
  <g
     inkscape:label="Layer 1"
     inkscape:groupmode="layer"
     id="layer1"
     transform="translate(-306.55105,-176.60777)">
    <g
       style="font-style:normal;font-variant:normal;font-weight:normal;font-stretch:normal;font-size:144px;line-height:125%;font-family:Sans;-inkscape-font-specification:Sans;text-align:start;letter-spacing:0px;word-spacing:0px;writing-mode:lr-tb;text-anchor:start;fill:#000000;fill-opacity:1;stroke:none"
       id="text4448">
      <g
         id="g3345"
         transform="matrix(0.39142985,0,0,0.39142985,188.07305,148.07985)">
        <path
           inkscape:connector-curvature="0"
           id="path4453"
           d="m 306.55105,86.465691 103.28906,0 0,11.53125 -9.70312,0 c 3.7968,2.718729 6.64446,5.789039 8.54297,9.210939 1.89836,3.42184 2.84758,7.57027 2.84765,12.44531 -7e-5,6.37495 -1.6407,11.99995 -4.92187,16.875 -3.28132,4.87494 -7.91022,8.55462 -13.88672,11.03906 -5.97662,2.48431 -12.52739,3.72649 -19.65235,3.72657 -7.64065,-8e-5 -14.51955,-1.37117 -20.63671,-4.11329 -6.1172,-2.74225 -10.8047,-6.72662 -14.0625,-11.95312 -3.25782,-5.22662 -4.88672,-10.7227 -4.88672,-16.48828 0,-4.21879 0.89062,-8.00394 2.67187,-11.35547 1.78125,-3.35159 4.03125,-6.10549 6.75,-8.261719 l -36.35156,0 z m 65.53125,11.46094 c -9.6094,-2e-5 -16.71096,1.94529 -21.30469,5.835939 -4.59376,3.89059 -6.89063,8.60152 -6.89062,14.13281 -1e-5,5.62495 2.37889,10.44135 7.13672,14.44922 4.75779,4.00775 12.12887,6.01165 22.11328,6.01172 9.51557,-7e-5 16.64057,-1.95709 21.375,-5.8711 4.73431,-3.91411 7.10149,-8.58989 7.10156,-14.02734 -7e-5,-5.39066 -2.5196,-10.16019 -7.55859,-14.3086 -5.03912,-4.14846 -12.36333,-6.222669 -21.97266,-6.222649 z" />
        <path
           inkscape:connector-curvature="0"
           id="path4455"
           d="m 392.8351,136.05561 8.05788,7.44204 c -2.2547,-9.99468 0.005,-18.65936 6.77915,-25.99407 2.98956,-3.23695 6.40016,-5.68619 10.23182,-7.34773 3.83167,-1.66158 7.31399,-2.3058 10.44695,-1.93269 3.13297,0.37309 6.31408,1.54039 9.54334,3.50193 2.17491,1.30677 5.2424,3.78888 9.20248,7.44631 l 33.98774,31.39014 -8.58696,9.29756 -30.42368,-28.09847 c -4.8554,-4.48433 -8.30168,-7.31628 -10.33886,-8.49584 -2.98557,-1.67268 -6.05027,-2.20605 -9.19411,-1.60012 -3.14381,0.60587 -6.00378,2.30345 -8.57988,5.09275 -2.57607,2.78923 -4.27861,6.06625 -5.10762,9.83105 -0.82895,3.76471 -0.48148,7.292 1.04242,10.58185 1.52394,3.28974 4.62751,7.09728 9.31071,11.42263 l 29.39062,27.14436 -8.58697,9.29756 -54.8556,-50.66312 z" />
        <path
           inkscape:connector-curvature="0"
           id="path4457"
           d="m 384.46239,245.78641 -11.74219,0 0,-103.07812 12.65625,0 0,36.77344 c 5.34372,-6.70306 12.16403,-10.05462 20.46094,-10.05469 4.5937,7e-5 8.94135,0.92586 13.04296,2.77734 4.10151,1.85164 7.4765,4.4532 10.125,7.80469 2.64837,3.35162 4.72259,7.39459 6.22266,12.12891 1.49993,4.73442 2.24993,9.79691 2.25,15.1875 -7e-5,12.7969 -3.16413,22.68751 -9.49219,29.67187 -6.32818,6.98438 -13.92192,10.47656 -22.78125,10.47656 -8.81253,0 -15.72659,-3.67968 -20.74218,-11.03906 z m -0.14063,-37.89843 c -2e-5,8.95315 1.21873,15.42189 3.65625,19.40625 3.98435,6.51563 9.37497,9.77344 16.17188,9.77343 5.5312,1e-5 10.31244,-2.40233 14.34375,-7.20703 4.03119,-4.80466 6.04681,-11.96481 6.04687,-21.48047 -6e-5,-9.74995 -1.93365,-16.94525 -5.80078,-21.58593 -3.86724,-4.64057 -8.54302,-6.96088 -14.02734,-6.96094 -5.53129,6e-5 -10.31254,2.40241 -14.34375,7.20703 -4.03128,4.80474 -6.0469,11.75395 -6.04688,20.84766 z" />
      </g>
    </g>
  </g>
</svg>
