<?xml version="1.0" encoding="UTF-8" standalone="no"?>
<!-- Created with Inkscape (http://www.inkscape.org/) -->

<svg
   xmlns:dc="http://purl.org/dc/elements/1.1/"
   xmlns:cc="http://creativecommons.org/ns#"
   xmlns:rdf="http://www.w3.org/1999/02/22-rdf-syntax-ns#"
   xmlns:svg="http://www.w3.org/2000/svg"
   xmlns="http://www.w3.org/2000/svg"
   xmlns:sodipodi="http://sodipodi.sourceforge.net/DTD/sodipodi-0.dtd"
   xmlns:inkscape="http://www.inkscape.org/namespaces/inkscape"
   width="20mm"
   height="20mm"
   id="svg5095"
   version="1.1"
   inkscape:version="0.91 r13725"
   sodipodi:docname="COACH.svg">
  <defs
     id="defs5097" />
  <sodipodi:namedview
     id="base"
     pagecolor="#ffffff"
     bordercolor="#666666"
     borderopacity="1.0"
     inkscape:pageopacity="0.0"
     inkscape:pageshadow="2"
     inkscape:zoom="2.8"
     inkscape:cx="155.91957"
     inkscape:cy="28.931907"
     inkscape:document-units="px"
     inkscape:current-layer="g5114"
     showgrid="false"
     inkscape:window-width="1680"
     inkscape:window-height="997"
     inkscape:window-x="0"
     inkscape:window-y="0"
     inkscape:window-maximized="1"
     units="mm" />
  <metadata
     id="metadata5100">
    <rdf:RDF>
      <cc:Work
         rdf:about="">
        <dc:format>image/svg+xml</dc:format>
        <dc:type
           rdf:resource="http://purl.org/dc/dcmitype/StillImage" />
        <dc:title></dc:title>
      </cc:Work>
    </rdf:RDF>
  </metadata>
  <g
     inkscape:label="Layer 1"
     inkscape:groupmode="layer"
     id="layer1"
     transform="translate(0,-981.49609)">
    <g
       id="g5114"
       transform="translate(657.14286,-31.428571)">
      <path
         style="fill:#000000"
         d="m -616.74807,1082.1352 c -0.3232,-4.5017 -0.71192,-9.8534 -0.86382,-11.8927 l -0.27618,-3.7076 -3.10642,-7.8887 c -1.70853,-4.3388 -3.13234,-7.9208 -3.16404,-7.9599 -0.0562,-0.07 -0.24463,0.1252 -1.65232,1.7076 l -0.68703,0.7722 -0.84502,-0.5959 c -0.46475,-0.3277 -0.90421,-0.5959 -0.97657,-0.5959 -0.0723,0 -0.21149,0.2855 -0.30919,0.6344 l -0.17765,0.6345 -1.4158,-0.9426 c -0.77867,-0.5184 -1.41578,-0.9852 -1.41578,-1.0372 0,-0.052 0.19328,-0.2797 0.4295,-0.5061 0.23622,-0.2262 0.4295,-0.4605 0.4295,-0.5206 0,-0.06 -0.41572,-0.4057 -0.92383,-0.7683 l -0.92384,-0.6593 0.52122,-0.8154 c 0.28668,-0.4486 1.1848,-1.8435 1.99585,-3.0999 l 1.47461,-2.2844 -0.42127,-0.2667 c -0.46535,-0.2947 -0.64252,-0.6752 -0.50949,-1.0943 0.0603,-0.1901 0.009,-0.2971 -0.16931,-0.347 -0.14109,-0.04 -4.88644,-0.9286 -10.54524,-1.9753 l -10.28872,-1.9031 -0.30557,0.3579 c -0.16806,0.1967 -0.40221,0.5016 -0.52032,0.6774 l -0.21475,0.3198 -1.07375,-0.7208 c -0.59055,-0.3965 -1.06616,-0.8082 -1.05686,-0.9149 0.013,-0.1504 14.51285,-21.7002 15.41772,-22.9141 0.20136,-0.2701 0.23635,-0.2598 1.15545,0.3389 0.52129,0.3396 0.94779,0.6444 0.94779,0.677 0,0.032 -0.16491,0.385 -0.36647,0.7828 -0.32812,0.6475 -0.34516,0.7556 -0.16303,1.0331 0.11187,0.1706 2.79424,4.1434 5.9608,8.8284 4.22833,6.2561 5.82105,8.5063 5.99706,8.4726 0.13183,-0.026 0.40074,-0.078 0.59759,-0.1158 0.28598,-0.056 1.13492,0.4594 4.2234,2.5627 3.57524,2.435 3.86884,2.6666 3.91032,3.0861 0.0379,0.3828 -0.30508,0.9727 -2.19872,3.7824 -1.23396,1.831 -2.37668,3.474 -2.5394,3.6512 -0.40167,0.4373 -0.86157,0.4048 -1.61602,-0.1142 -0.37799,-0.2602 -0.62986,-0.3614 -0.62337,-0.2506 0.006,0.1022 1.63506,3.5358 3.62017,7.6303 l 3.60927,7.4444 2.88805,1.0208 c 2.52649,0.8931 3.16145,1.0598 5.07207,1.3314 1.20122,0.1707 2.19664,0.3235 2.21204,0.3394 -0.40127,2.4901 0.16488,1.2219 -0.77378,6.0058 -0.0576,-0.02 -1.11575,5.0376 -2.35141,11.2386 -2.93186,1.185 -4.65467,2.222 -7.98744,0.5616 z m 8.58942,-20.2745 c -3.66474,-0.7774 -6.78055,-2.8597 -8.86426,-5.9238 -0.7349,-1.0807 -1.67319,-3.2018 -2.00242,-4.5268 -0.38529,-1.5504 -0.38306,-1.7265 0.0219,-1.7264 0.96427,3e-4 9.39274,1.2025 11.38171,1.6235 1.27954,0.2708 2.32645,0.4381 2.32645,0.3718 0,-0.066 -1.97107,-3.4247 -4.38014,-7.4631 l -4.38014,-7.3425 0.44306,-0.3699 c 0.70814,-0.5912 2.84465,-1.6493 4.16148,-2.0611 7.35839,-2.3009 15.34055,1.9046 17.65124,9.2998 1.0991,3.5176 0.81837,7.0735 -0.82508,10.4511 -2.00105,4.1126 -5.60663,6.8713 -10.09294,7.7224 -1.55039,0.2941 -3.90768,0.2703 -5.44081,-0.055 z"
         id="path5116"
         inkscape:connector-curvature="0"
         sodipodi:nodetypes="cscscsccsccssssscsscsscscsscscsssscscsscssscscssccccssscssscssssss" />
    </g>
  </g>
</svg>
