<?xml version="1.0" encoding="UTF-8" standalone="no"?>
<!-- Created with Inkscape (http://www.inkscape.org/) -->

<svg
   xmlns:dc="http://purl.org/dc/elements/1.1/"
   xmlns:cc="http://creativecommons.org/ns#"
   xmlns:rdf="http://www.w3.org/1999/02/22-rdf-syntax-ns#"
   xmlns:svg="http://www.w3.org/2000/svg"
   xmlns="http://www.w3.org/2000/svg"
   xmlns:sodipodi="http://sodipodi.sourceforge.net/DTD/sodipodi-0.dtd"
   xmlns:inkscape="http://www.inkscape.org/namespaces/inkscape"
   width="20mm"
   height="20mm"
   id="svg5132"
   version="1.1"
   inkscape:version="0.91 r13725"
   sodipodi:docname="CONFERENCE.svg"
   inkscape:export-filename="C:\bin\CardMaker\MonEntrepriseAgile\Activities\CONFERENCE.png"
   inkscape:export-xdpi="300"
   inkscape:export-ydpi="300">
  <defs
     id="defs5134" />
  <sodipodi:namedview
     id="base"
     pagecolor="#ffffff"
     bordercolor="#666666"
     borderopacity="1.0"
     inkscape:pageopacity="0.0"
     inkscape:pageshadow="2"
     inkscape:zoom="1.979899"
     inkscape:cx="252.5666"
     inkscape:cy="-29.490511"
     inkscape:document-units="px"
     inkscape:current-layer="g5151"
     showgrid="false"
     inkscape:window-width="1680"
     inkscape:window-height="997"
     inkscape:window-x="0"
     inkscape:window-y="0"
     inkscape:window-maximized="1"
     units="mm" />
  <metadata
     id="metadata5137">
    <rdf:RDF>
      <cc:Work
         rdf:about="">
        <dc:format>image/svg+xml</dc:format>
        <dc:type
           rdf:resource="http://purl.org/dc/dcmitype/StillImage" />
        <dc:title></dc:title>
      </cc:Work>
    </rdf:RDF>
  </metadata>
  <g
     inkscape:label="Layer 1"
     inkscape:groupmode="layer"
     id="layer1"
     transform="translate(0,-981.49609)">
    <g
       id="g5151"
       transform="translate(80,925.71429)">
      <path
         style="fill:#000000"
         d="m -37.067392,62.242894 c -1.364761,0.02946 -2.509721,0.943514 -2.695741,2.300674 -0.138299,1.008999 0.576208,2.154368 1.61014,2.579546 0.550016,0.226176 0.586895,0.30615 0.182592,0.388419 -0.738903,0.150369 -1.591181,0.976684 -1.938808,1.879062 -0.14668,0.380741 -0.298714,5.574165 -0.172633,5.902731 0.04986,0.129949 0.538473,0.152726 3.090806,0.152726 l 3.031047,0 0,-2.689111 c 0,-2.971062 -0.06577,-3.411773 -0.634095,-4.196326 -0.320229,-0.442069 -1.277761,-1.080462 -1.623422,-1.082269 -0.303908,-0.0017 -0.212343,-0.159589 0.172635,-0.2988 1.337259,-0.483556 2.024876,-1.793669 1.649979,-3.143919 -0.162032,-0.583566 -1.090342,-1.494699 -1.699778,-1.666579 -0.328987,-0.09278 -0.65778,-0.132953 -0.972722,-0.126154 z m -14.790057,0.122834 c -0.698725,0.0033 -1.405982,0.260624 -1.958727,0.813371 -0.7385,0.738501 -0.951472,1.912749 -0.514587,2.815256 0.270838,0.559471 0.952916,1.163858 1.500586,1.327951 0.451704,0.135323 0.422839,0.214554 -0.14275,0.39507 -0.548337,0.174982 -1.226241,0.797462 -1.560343,1.430863 l -0.285508,0.544459 -0.03319,2.948052 -0.0332,2.948051 3.041008,0 3.037683,0 -0.02988,-3.001168 c -0.03702,-3.405717 -0.04993,-3.449241 -0.956124,-4.282644 -0.416148,-0.382694 -0.635834,-0.506415 -1.308032,-0.733686 -0.173908,-0.0588 -0.118964,-0.10833 0.308754,-0.272241 1.264941,-0.484756 1.97836,-1.807496 1.616774,-3.001164 -0.373419,-1.232751 -1.517911,-1.937697 -2.682461,-1.93217 z m 32.123138,3.655185 c -0.08102,3.73e-4 -0.160714,0.0052 -0.232393,0.0166 -1.476279,0.236063 -2.42683,1.238495 -2.42683,2.556311 0,1.026208 0.522331,1.812006 1.520503,2.284076 l 0.614177,0.29215 -0.497981,0.189227 c -0.600234,0.229226 -1.34668,0.895581 -1.659938,1.480665 -0.217646,0.406491 -0.231504,0.589059 -0.262272,3.40288 l -0.02988,2.974611 3.031048,-0.02989 3.034368,-0.02989 0,-2.755488 c 0,-2.509223 -0.0192,-2.80441 -0.215791,-3.329843 -0.263817,-0.705116 -1.003427,-1.436478 -1.736296,-1.716367 l -0.511263,-0.195879 0.624139,-0.282183 c 1.025081,-0.465325 1.520502,-1.222033 1.520502,-2.317286 0,-0.7845 -0.316212,-1.42658 -0.942844,-1.905598 -0.49875,-0.381271 -1.262091,-0.636854 -1.829252,-0.634103 z m -49.150795,0.142762 c -0.567153,-0.0028 -1.3305,0.252831 -1.829249,0.634091 -0.626633,0.479018 -0.942845,1.12111 -0.942845,1.905609 0,1.095253 0.495434,1.851961 1.520505,2.317275 l 0.624137,0.282195 -0.511261,0.195867 c -0.73287,0.279889 -1.472476,1.011262 -1.736292,1.716381 -0.196609,0.525467 -0.215796,0.822397 -0.215796,3.333159 l 0,2.755487 3.001169,0.02989 3.00117,0.02656 0.03319,-0.637418 c 0.01812,-0.350578 0.01812,-1.689152 0,-2.974608 -0.03045,-2.158326 -0.05313,-2.36862 -0.26559,-2.765465 -0.313258,-0.585074 -1.059704,-1.251429 -1.659939,-1.480653 l -0.494657,-0.189239 0.614173,-0.288824 c 0.998162,-0.472061 1.520503,-1.261183 1.520503,-2.287402 0,-1.317816 -0.953872,-2.320239 -2.43015,-2.556306 -0.07167,-0.01146 -0.14805,-0.0162 -0.229077,-0.0166 z m 25.493345,10.019282 c -5.902391,-0.01949 -9.80008,-0.09922 -15.686415,1.052503 -4.316612,1.125326 -7.789231,4.790175 -9.262471,9.242541 -1.925751,5.819994 0.130362,12.343929 5.052865,16.038329 1.93475,1.45207 4.615608,2.53325 6.958464,2.80862 4.558069,0.28755 7.271627,0.76164 12.535022,0.31901 4.514502,-0.3394 8.786396,0.29806 12.785679,-0.63109 2.085054,-0.48386 3.613954,-1.133 5.275286,-2.23427 1.242622,-0.82372 2.83822,-2.36438 3.661825,-3.53566 1.209562,-1.720179 2.172257,-4.071173 2.513147,-6.145104 0.279136,-1.698129 0.175682,-4.135877 -0.24567,-5.753342 -1.380921,-5.30101 -5.168928,-9.092969 -10.543932,-10.557212 -4.333521,-0.854373 -9.249706,-0.551988 -13.0438,-0.604325 z m 30.15777,8.163682 c -0.768657,-0.0063 -1.554586,0.293338 -2.138002,0.956124 -0.687857,0.781442 -0.817258,1.696358 -0.375146,2.645937 0.270785,0.581601 0.845829,1.088815 1.507224,1.327951 0.384969,0.139214 0.476534,0.297198 0.172635,0.298801 -0.345672,0.0019 -1.303184,0.6402 -1.62342,1.082268 -0.568332,0.784555 -0.634097,1.225265 -0.634097,4.196327 l 0,2.68911 3.080845,0 3.080847,0 0,-2.57955 c 0,-2.826675 -0.08597,-3.451482 -0.594258,-4.219559 -0.308381,-0.465993 -1.100835,-1.042569 -1.557021,-1.135408 -0.407226,-0.08286 -0.36803,-0.160385 0.202511,-0.39506 1.023032,-0.420792 1.731894,-1.563465 1.593541,-2.5729 -0.195628,-1.427217 -1.434567,-2.283524 -2.715659,-2.294041 z m -62.151426,0.142759 c -1.2811,0.01052 -2.520047,0.866812 -2.71567,2.29403 -0.138351,1.009435 0.567205,2.15211 1.590225,2.572902 0.570542,0.234675 0.613059,0.312196 0.205834,0.39507 -0.456189,0.09283 -1.248635,0.669404 -1.557028,1.135398 -0.508277,0.768077 -0.594253,1.392884 -0.594253,4.219559 l 0,2.57955 3.080847,0 3.080846,0 0,-2.689101 c 0,-2.971071 -0.06908,-3.411771 -0.637417,-4.196326 -0.320236,-0.442069 -1.274439,-1.080472 -1.620099,-1.082279 -0.3039,-0.0017 -0.212345,-0.159578 0.172633,-0.29879 1.747488,-0.63189 2.316743,-2.628047 1.132084,-3.973886 -0.583417,-0.662798 -1.369351,-0.962447 -2.138002,-0.956127 z m 55.714182,17.927342 c -1.562669,0 -2.722299,1.06671 -2.722299,2.50318 0,1.07731 0.641852,1.99966 1.669898,2.39363 0.421865,0.16166 0.480278,0.21115 0.30875,0.2656 -0.57223,0.18165 -1.170319,0.56555 -1.540424,0.986 -0.693563,0.78794 -0.743653,1.07563 -0.743653,4.2428 l 0,2.79534 3.027728,0 3.027729,0 0,-2.79534 c 0,-2.33766 -0.03041,-2.88296 -0.179274,-3.31988 -0.223648,-0.65637 -1.088372,-1.55251 -1.683177,-1.74293 -0.605248,-0.19376 -0.637841,-0.27096 -0.179274,-0.40835 0.546383,-0.1637 1.283677,-0.81254 1.523824,-1.34123 0.25078,-0.55215 0.259789,-1.5462 0.01992,-2.05167 -0.447626,-0.94334 -1.414459,-1.52715 -2.529748,-1.52715 z m -49.276944,0.14275 c -1.115287,0 -2.082111,0.58382 -2.529746,1.52714 -0.23986,0.50549 -0.230863,1.49955 0.01992,2.05169 0.240146,0.52869 0.977436,1.17751 1.523819,1.34122 0.458568,0.13739 0.425984,0.2146 -0.179264,0.40835 -0.594805,0.19043 -1.462859,1.08656 -1.686498,1.74294 -0.148867,0.43692 -0.175957,0.98223 -0.175957,3.31987 l 0,2.79534 3.027727,0 3.027729,0 0,-2.79534 c 0,-3.16716 -0.05008,-3.45486 -0.743654,-4.2428 -0.370094,-0.42045 -0.968192,-0.80434 -1.540422,-0.98601 -0.171528,-0.0544 -0.11312,-0.10391 0.308754,-0.26559 1.028036,-0.39396 1.669893,-1.31632 1.669893,-2.39362 0,-1.43647 -1.159631,-2.50319 -2.7223,-2.50319 z m 16.977855,3.53899 c -0.599235,0.0249 -1.202189,0.23996 -1.713058,0.67726 -0.889535,0.7614 -1.124199,1.94104 -0.597577,2.99784 0.292872,0.5877 0.953458,1.16213 1.454107,1.26487 0.415319,0.0852 0.454371,0.21796 0.08631,0.2988 -0.354935,0.078 -1.083216,0.57684 -1.454106,0.99596 -0.136567,0.15431 -0.346692,0.53096 -0.464784,0.83993 -0.195538,0.51153 -0.212472,0.80819 -0.212472,3.31989 l 0,2.7588 3.031055,0 3.034357,0 -0.03318,-2.94805 c -0.02853,-2.68654 -0.05074,-2.98574 -0.242357,-3.37299 -0.316529,-0.63971 -1.004865,-1.27124 -1.656613,-1.51719 -0.463444,-0.17488 -0.533411,-0.23035 -0.361871,-0.28882 0.68279,-0.23278 0.891831,-0.3574 1.294753,-0.76027 0.530053,-0.52994 0.830126,-1.37945 0.713778,-2.02179 -0.25981,-1.4342 -1.560013,-2.29898 -2.878339,-2.24424 z m 14.91289,0.10294 c -0.735911,0.005 -1.482771,0.29089 -2.045045,0.91629 -0.603091,0.6708 -0.795645,1.37875 -0.597578,2.20439 0.168746,0.7034 0.877791,1.51848 1.543744,1.77281 0.520577,0.19881 0.534362,0.31188 0.0498,0.41831 -0.546448,0.12002 -1.326518,0.8282 -1.65994,1.50722 l -0.302109,0.61751 -0.03652,2.84181 -0.03652,2.83849 3.064246,0.0299 3.064248,0.0265 0.03319,-0.58431 c 0.01825,-0.32137 0.01825,-1.61212 0,-2.86837 -0.03105,-2.13679 -0.05001,-2.32088 -0.285509,-2.84181 -0.35928,-0.79477 -1.022755,-1.35735 -1.978648,-1.67654 -0.176202,-0.0589 -0.122776,-0.11114 0.318709,-0.30876 1.013462,-0.45365 1.643339,-1.34949 1.643339,-2.34382 0,-1.55808 -1.370496,-2.55995 -2.775417,-2.54966 z"
         id="path5153-2-7"
         inkscape:connector-curvature="0"
         sodipodi:nodetypes="ssscccscsscsssscsccccccccccccsscccsccccccccsscccsccccssccccscccccccccsccccsscccssssccsssccsscccsscscssssccscccsscssssscccscccssssccssscccsscccsscsssssccsccscccccccccsssssccccccccsccsss" />
    </g>
  </g>
</svg>
