<?xml version="1.0" encoding="UTF-8" standalone="no"?>
<!-- Created with Inkscape (http://www.inkscape.org/) -->

<svg
   xmlns:dc="http://purl.org/dc/elements/1.1/"
   xmlns:cc="http://creativecommons.org/ns#"
   xmlns:rdf="http://www.w3.org/1999/02/22-rdf-syntax-ns#"
   xmlns:svg="http://www.w3.org/2000/svg"
   xmlns="http://www.w3.org/2000/svg"
   xmlns:sodipodi="http://sodipodi.sourceforge.net/DTD/sodipodi-0.dtd"
   xmlns:inkscape="http://www.inkscape.org/namespaces/inkscape"
   width="20mm"
   height="20mm"
   id="svg2"
   version="1.1"
   inkscape:version="0.91 r13725"
   sodipodi:docname="EDUCATION.svg"
   inkscape:export-filename="C:\bin\CardMaker\MonEntrepriseAgile\ProductTeams\EDUCATION.png"
   inkscape:export-xdpi="300"
   inkscape:export-ydpi="300">
  <defs
     id="defs4" />
  <sodipodi:namedview
     id="base"
     pagecolor="#ffffff"
     bordercolor="#666666"
     borderopacity="1.0"
     inkscape:pageopacity="0.0"
     inkscape:pageshadow="2"
     inkscape:zoom="1.4"
     inkscape:cx="129.53061"
     inkscape:cy="127.00518"
     inkscape:document-units="px"
     inkscape:current-layer="g2996"
     showgrid="false"
     inkscape:window-width="1680"
     inkscape:window-height="997"
     inkscape:window-x="0"
     inkscape:window-y="0"
     inkscape:window-maximized="1"
     units="mm" />
  <metadata
     id="metadata7">
    <rdf:RDF>
      <cc:Work
         rdf:about="">
        <dc:format>image/svg+xml</dc:format>
        <dc:type
           rdf:resource="http://purl.org/dc/dcmitype/StillImage" />
        <dc:title></dc:title>
      </cc:Work>
    </rdf:RDF>
  </metadata>
  <g
     inkscape:label="Layer 1"
     inkscape:groupmode="layer"
     id="layer1"
     transform="translate(0,-981.49609)">
    <g
       id="g2996"
       transform="translate(141.7013,20.069986)">
      <path
         style="fill:#000000"
         d="m -107.96371,1026.1201 c -0.57024,-0.3061 -1.84768,-1.3999 -2.83877,-2.4308 -2.18615,-2.274 -3.76957,-3.1014 -7.10802,-3.7144 -2.19793,-0.4036 -2.8294,-0.4135 -4.63411,-0.073 -2.02316,0.3818 -2.13275,0.3714 -3.45568,-0.3275 -0.85674,-0.4525 -1.51502,-1.0591 -1.76513,-1.6265 -0.32908,-0.7466 -0.57826,-0.9099 -1.42423,-0.9339 -3.75638,-0.1065 -7.7908,-4.2184 -10.67835,-10.8836 -0.74198,-1.7126 -0.5707,-1.9738 -0.90146,-8.20528 -0.35415,-6.67248 0.8093,-10.48047 1.20405,-11.77276 0.10084,-0.33009 0.96867,-1.91585 2.00686,-3.43931 2.47532,-3.6323 5.93507,-7.85413 9.04143,-9.36832 1.80512,-0.87991 2.33128,-0.99733 4.58297,-1.02263 2.17026,-0.0243 2.63551,-0.12036 3.16881,-0.65369 0.75283,-0.7528 2.8052,-1.35381 3.70722,-1.08558 0.35857,0.10664 1.10212,0.45228 1.65233,0.76812 2.23461,1.28275 7.44534,1.83785 9.81385,1.04547 0.57132,-0.19115 1.93824,-0.8592 3.0376,-1.4846 2.42922,-1.38187 4.747522,-1.67311 4.898669,-0.61538 0.115709,0.80974 -1.47986,2.74842 -3.288749,3.99598 l -1.42318,0.98155 0.83072,0.42636 c 0.4569,0.23449 1.49723,0.98602 2.311856,1.67009 l 1.481134,1.24374 1.629247,-0.63363 c 0.896085,-0.34848 2.946937,-0.94944 4.557447,-1.33542 2.636969,-0.63203 3.197184,-0.67267 5.632712,-0.40861 5.54201,0.60083 9.541058,3.52169 11.373821,8.30726 1.566219,4.08959 1.966694,6.52644 1.962858,11.94383 -0.0039,5.46961 -0.3932,7.97151 -1.912917,12.29341 -2.191949,6.2336 -5.406355,10.9241 -8.851312,12.916 -4.45788,2.5776 -10.68737,2.0912 -15.59243,-1.2173 -0.968931,-0.6535 -2.250366,-1.5149 -2.847646,-1.914 -0.59727,-0.3992 -1.1656,-0.8546 -1.26295,-1.0122 -0.19084,-0.3088 -1.41774,-0.041 -2.52225,0.5498 -0.36215,0.1938 -1.46337,0.5165 -2.44716,0.7172 l -1.7887,0.3649 1.07013,1.1667 c 1.32389,1.4433 2.85292,4.2568 2.85292,5.2495 0,0.4079 -0.21086,0.8224 -0.46857,0.9213 -0.56156,0.2155 -0.35756,0.2667 -1.60502,-0.4028 z m 2.46721,-35.76445 c 0.95951,-0.48599 1.67996,-1.97107 1.67996,-3.46289 0,-1.37325 -1.52886,-3.34802 -3.29613,-4.25749 -0.75086,-0.3864 -2.25717,-0.85533 -3.34735,-1.04207 -2.19682,-0.37629 -2.52617,-0.20721 -2.53501,1.30145 -0.004,0.73751 0.0837,0.78114 1.86287,0.92396 2.22085,0.17827 3.06232,0.63753 3.47849,1.89854 0.73993,2.24202 -0.37397,3.36475 -3.33822,3.36475 -1.58712,0 -2.00768,0.0931 -2.00768,0.44434 0,0.24439 0.1,0.45204 0.22217,0.46143 0.1222,0.009 1.15529,0.26806 2.29576,0.57483 2.17789,0.58582 3.53102,0.52966 4.98514,-0.20685 z"
         id="path2998"
         inkscape:connector-curvature="0"
         sodipodi:nodetypes="sssssssssssssssssssscsscssssssssscsscssssssssssssssss" />
    </g>
  </g>
</svg>
