<?xml version="1.0" encoding="UTF-8" standalone="no"?>
<!-- Created with Inkscape (http://www.inkscape.org/) -->

<svg
   xmlns:dc="http://purl.org/dc/elements/1.1/"
   xmlns:cc="http://creativecommons.org/ns#"
   xmlns:rdf="http://www.w3.org/1999/02/22-rdf-syntax-ns#"
   xmlns:svg="http://www.w3.org/2000/svg"
   xmlns="http://www.w3.org/2000/svg"
   xmlns:sodipodi="http://sodipodi.sourceforge.net/DTD/sodipodi-0.dtd"
   xmlns:inkscape="http://www.inkscape.org/namespaces/inkscape"
   width="20mm"
   height="20mm"
   id="svg3016"
   version="1.1"
   inkscape:version="0.91 r13725"
   sodipodi:docname="LEADER.svg"
   inkscape:export-filename="C:\bin\CardMaker\MonEntrepriseAgile\Activities\LEADER.png"
   inkscape:export-xdpi="300"
   inkscape:export-ydpi="300">
  <defs
     id="defs3018" />
  <sodipodi:namedview
     id="base"
     pagecolor="#ffffff"
     bordercolor="#666666"
     borderopacity="1.0"
     inkscape:pageopacity="0.0"
     inkscape:pageshadow="2"
     inkscape:zoom="7.9195958"
     inkscape:cx="76.653436"
     inkscape:cy="30.799489"
     inkscape:document-units="px"
     inkscape:current-layer="layer1"
     showgrid="false"
     inkscape:window-width="1678"
     inkscape:window-height="997"
     inkscape:window-x="0"
     inkscape:window-y="0"
     inkscape:window-maximized="0"
     units="mm" />
  <metadata
     id="metadata3021">
    <rdf:RDF>
      <cc:Work
         rdf:about="">
        <dc:format>image/svg+xml</dc:format>
        <dc:type
           rdf:resource="http://purl.org/dc/dcmitype/StillImage" />
        <dc:title></dc:title>
      </cc:Work>
    </rdf:RDF>
  </metadata>
  <g
     inkscape:label="Layer 1"
     inkscape:groupmode="layer"
     id="layer1"
     transform="translate(0,-981.49609)">
    <path
       inkscape:connector-curvature="0"
       id="path3041-4"
       d="m 16.782622,1040.8387 c -0.141991,-0.2452 -0.4828,-2.7313 -0.901774,-6.5781 -0.370439,-3.4012 -0.71073,-6.2889 -0.756212,-6.4171 -0.04544,-0.1283 -0.387866,-0.2775 -0.760897,-0.3319 -0.771326,-0.1123 -1.570095,-0.9118 -1.565872,-1.568 0.0016,-0.2154 0.253742,-2.7569 0.560785,-5.6478 l 0.558255,-5.256 0.493803,-0.4818 0.493786,-0.4819 3.441177,0 c 3.746677,0 3.943466,0.044 4.297025,1.0004 0.191132,0.5162 1.158378,9.3406 1.158378,10.5684 0,0.3953 -0.07498,0.8704 -0.166644,1.0556 -0.210988,0.427 -0.986374,0.8664 -1.528212,0.8664 -0.280173,0 -0.464016,0.1288 -0.562767,0.3942 -0.08066,0.2168 -0.413584,2.9172 -0.739873,6.0008 -0.654099,6.1815 -0.763279,6.903 -1.077282,7.1187 -0.117831,0.082 -0.776991,0.1482 -1.464817,0.1497 -1.122793,0 -1.273928,-0.037 -1.478859,-0.3916 z m 34.361652,0.1194 c -0.129916,-0.1695 -0.478863,-2.706 -0.909883,-6.6141 -0.38452,-3.4865 -0.729308,-6.4263 -0.766175,-6.533 -0.03689,-0.1068 -0.371833,-0.238 -0.744328,-0.2924 -0.741414,-0.1078 -1.374762,-0.6344 -1.520961,-1.2648 -0.121661,-0.5248 0.966499,-10.8311 1.191646,-11.2864 0.413752,-0.8369 0.676755,-0.8913 4.310733,-0.8913 3.191518,0 3.449973,0.023 3.838799,0.3548 0.229275,0.1955 0.456447,0.491 0.504825,0.6572 0.13715,0.4709 1.064124,9.6086 1.064124,10.4895 0,0.4323 -0.07497,0.9377 -0.16664,1.1229 -0.209012,0.4228 -0.984786,0.8664 -1.515182,0.8664 -0.221701,0 -0.453387,0.088 -0.514841,0.1957 -0.06145,0.1079 -0.427718,3.073 -0.813939,6.5897 -0.386204,3.5167 -0.786132,6.5036 -0.888728,6.6374 -0.279902,0.365 -2.785098,0.3391 -3.06945,-0.031 z m -17.100606,-0.5094 c -0.315898,-0.1488 -0.549995,-0.4042 -0.595766,-0.6502 -0.09766,-0.5248 -0.265173,-2.2602 -1.240023,-12.8447 -0.443741,-4.8183 -0.958163,-9.7459 -1.143155,-10.9505 l -0.336339,-2.1901 -2.766387,-5.9567 c -4.843349,-10.42912 -4.402165,-9.34804 -4.142979,-10.15287 0.455476,-1.41447 2.042341,-1.92221 2.991311,-0.9571 0.213333,0.21692 1.061939,1.83793 1.885815,3.60227 0.823876,1.7643 1.586946,3.2456 1.695708,3.2916 0.10878,0.046 0.407471,0 0.663792,-0.093 0.282118,-0.1068 2.231185,-0.1556 4.938514,-0.1241 l 4.472485,0.052 0.58947,0.6385 0.589471,0.6384 0.630109,4.6176 c 0.825057,6.0468 0.916534,7.3535 0.556292,7.9488 -0.405318,0.6695 -1.215567,1.1353 -1.976485,1.136 -0.367428,0 -0.738597,0.1 -0.824814,0.2198 -0.08624,0.1204 -0.391222,2.8208 -0.677758,6.0007 -0.286555,3.18 -0.58672,6.4126 -0.667062,7.1834 -0.08033,0.771 -0.264217,2.7814 -0.408619,4.4679 -0.315022,3.679 -0.39538,3.9644 -1.182711,4.2013 -0.83399,0.2507 -2.437673,0.2086 -3.050869,-0.081 z m -29.8710778,-1.6254 c -0.1907394,-0.2281 -0.4105274,-1.7265 -0.8545308,-5.8257 -0.3287574,-3.0351 -0.6704051,-5.6168 -0.7592121,-5.7372 -0.088807,-0.1207 -0.3743558,-0.2192 -0.6345626,-0.2192 -0.2864892,0 -0.6297748,-0.1696 -0.8703442,-0.4299 -0.50744478,-0.5494 -0.50454548,-0.7947 0.073268,-6.2161 0.5888701,-5.5254 0.2232046,-5.0928 4.3039987,-5.0928 4.0758664,0 3.7080763,-0.4348 4.3040535,5.0899 0.5809553,5.3854 0.5842623,5.6658 0.07326,6.219 -0.2405702,0.2603 -0.5838713,0.4299 -0.8703603,0.4299 -0.2601836,0 -0.5438753,0.099 -0.6304174,0.2192 -0.086545,0.1204 -0.4286764,2.7024 -0.7603332,5.738 -0.445539,4.0777 -0.6697466,5.5988 -0.8586602,5.8255 -0.3633304,0.4357 -2.1517329,0.4353 -2.5161368,0 z m 60.0385648,-0.012 c -0.20025,-0.2396 -0.40842,-1.6493 -0.860207,-5.8255 -0.327813,-3.0305 -0.666129,-5.6082 -0.751813,-5.7288 -0.08567,-0.1204 -0.368676,-0.2188 -0.62888,-0.2188 -0.65115,0 -1.266435,-0.6956 -1.271761,-1.4375 -0.0022,-0.3177 0.193993,-2.5485 0.436151,-4.9575 0.426585,-4.2439 0.454034,-4.3952 0.881867,-4.8621 l 0.441573,-0.4817 2.997626,0 c 4.09848,0 3.71741,-0.4563 4.320539,5.1718 0.589889,5.5045 0.590565,5.5922 0.04723,6.1373 -0.23728,0.238 -0.625403,0.4297 -0.870352,0.4297 -0.243153,0 -0.514855,0.099 -0.603782,0.2188 -0.08893,0.1206 -0.432056,2.7027 -0.762509,5.7382 -0.440849,4.0494 -0.668314,5.6005 -0.854309,5.8256 -0.365178,0.4416 -2.149808,0.435 -2.521369,-0.012 z M 4.1786632,1013.7151 c -1.1028424,-0.6304 -1.5635916,-2.3009 -0.9933794,-3.6016 0.746643,-1.7032 3.1618503,-1.9769 4.2180285,-0.4778 0.575901,0.8174 0.6856227,2.1705 0.2464467,3.0391 -0.640362,1.2665 -2.23768,1.7451 -3.4710958,1.0403 z m 60.0205818,-0.036 c -1.138849,-0.7067 -1.560489,-2.3181 -0.947231,-3.62 0.394762,-0.838 1.01372,-1.2738 1.947563,-1.3708 1.502841,-0.1563 2.608088,0.8142 2.750186,2.4152 0.1943,2.1888 -1.974189,3.6781 -3.750518,2.5756 z m -47.159785,-1.2954 c -1.979754,-1.0562 -2.149116,-4.2394 -0.291669,-5.4822 2.231246,-1.4928 4.886654,0.562 4.394734,3.4006 -0.132149,0.7625 -0.950602,1.8135 -1.663174,2.1359 -0.700778,0.317 -1.7895,0.2927 -2.439891,-0.055 z m 34.248503,-0.065 c -0.726813,-0.4156 -1.2598,-1.1948 -1.452545,-2.1233 -0.450749,-2.1718 1.620011,-4.3115 3.562717,-3.6813 1.887255,0.612 2.712442,2.8543 1.723012,4.6821 -0.730328,1.3491 -2.520395,1.8732 -3.833184,1.1225 z m -16.944518,-11.6228 c -0.826822,-0.3239 -1.808096,-1.30585 -2.15633,-2.15794 -0.388325,-0.95027 -0.417555,-2.53901 -0.06314,-3.4314 0.423915,-1.06731 1.406079,-1.99957 2.4541,-2.32939 2.521154,-0.7934 4.908781,1.15002 4.918801,4.00371 0.01018,2.89261 -2.634481,4.90172 -5.153433,3.91502 z"
       style="fill:#000000;fill-opacity:1"
       sodipodi:nodetypes="cscscscccscssscsssccscsccsccscsssccscsscsccsccscccssccssssscssscsssssssscccssscsscsssssssccssscsssssssscssssssssscscs" />
  </g>
</svg>
