<?xml version="1.0" encoding="UTF-8" standalone="no"?>
<!-- Created with Inkscape (http://www.inkscape.org/) -->

<svg
   xmlns:dc="http://purl.org/dc/elements/1.1/"
   xmlns:cc="http://creativecommons.org/ns#"
   xmlns:rdf="http://www.w3.org/1999/02/22-rdf-syntax-ns#"
   xmlns:svg="http://www.w3.org/2000/svg"
   xmlns="http://www.w3.org/2000/svg"
   xmlns:sodipodi="http://sodipodi.sourceforge.net/DTD/sodipodi-0.dtd"
   xmlns:inkscape="http://www.inkscape.org/namespaces/inkscape"
   width="20mm"
   height="20mm"
   id="svg3847"
   version="1.1"
   inkscape:version="0.91 r13725"
   sodipodi:docname="THEEND.svg"
   inkscape:export-filename="D:\PortableApps\CardMaker\MonEntrepriseAgile\Activities\THEEND.png"
   inkscape:export-xdpi="300"
   inkscape:export-ydpi="300">
  <defs
     id="defs3849" />
  <sodipodi:namedview
     id="base"
     pagecolor="#ffffff"
     bordercolor="#666666"
     borderopacity="1.0"
     inkscape:pageopacity="0.0"
     inkscape:pageshadow="2"
     inkscape:zoom="3.9597979"
     inkscape:cx="45.555551"
     inkscape:cy="3.5482286"
     inkscape:document-units="px"
     inkscape:current-layer="layer1"
     showgrid="false"
     inkscape:window-width="1680"
     inkscape:window-height="997"
     inkscape:window-x="0"
     inkscape:window-y="0"
     inkscape:window-maximized="1"
     units="mm" />
  <metadata
     id="metadata3852">
    <rdf:RDF>
      <cc:Work
         rdf:about="">
        <dc:format>image/svg+xml</dc:format>
        <dc:type
           rdf:resource="http://purl.org/dc/dcmitype/StillImage" />
        <dc:title></dc:title>
      </cc:Work>
    </rdf:RDF>
  </metadata>
  <g
     inkscape:label="Layer 1"
     inkscape:groupmode="layer"
     id="layer1"
     transform="translate(0,-981.49609)">
    <path
       inkscape:connector-curvature="0"
       id="path3868"
       d="m 67.861595,1050.1641 c -9.601053,-27.1529 6.402344,18.8227 -4.785012,-13.5008 l -1.928595,-5.5735 -0.858448,-0.5896 c -2.605234,-1.7896 -4.842106,-2.7018 -7.202055,-2.937 -1.876571,-0.1872 -3.71127,0.301 -5.473513,1.4561 -2.549937,1.6717 -4.963274,4.4799 -9.131759,10.6259 -2.376137,3.5033 -3.639188,5.2124 -5.037349,6.8159 -1.35706,1.5563 -2.478977,2.5007 -4.017315,3.3815 -1.617246,0.9258 -2.013439,1.019 -4.332429,1.0199 -3.705628,0 -4.828666,-0.3479 -7.84013,-2.4383 l -1.079596,-0.7494 -2.707639,-7.8309 c -7.8390274,-22.6721 -11.0595772,-32.0703 -12.0932906,-35.2907 -0.1599413,-0.4981 -0.3096524,-0.8842 -0.3326946,-0.8577 -0.02305,0.027 -0.0419084,-0.02 -0.0419084,-0.1026 0,-0.1435 0.0108511,-0.1462 0.2317472,-0.055 0.127462,0.051 0.801839,0.4293 1.4986371,0.8382 1.9542662,1.1466 3.4707666,1.7676 5.19113,2.1252 1.02614,0.2135 2.5178243,0.2142 3.3772053,0 0.868376,-0.2145 1.77845,-0.5909 2.618793,-1.0824 2.593873,-1.5174 5.053572,-4.3238 9.515912,-10.85796 4.431019,-6.48843 6.461081,-8.80547 8.912787,-10.17276 1.013058,-0.56498 2.365794,-1.02876 3.374759,-1.15703 0.22686,-0.0288 0.358835,-0.0729 0.313842,-0.10488 -0.04266,-0.0303 0.142684,-0.0658 0.411925,-0.0789 0.756361,-0.0367 2.039071,0.0137 1.950359,0.0767 -0.04707,0.0334 0.08741,0.076 0.330218,0.10458 1.439022,0.16937 2.907088,0.71003 4.852397,1.78702 1.5532,0.8599 1.694911,0.8899 1.78485,0.37785 0.03442,-0.19617 0.100056,-0.27581 0.359643,-0.43662 0.451154,-0.27949 1.253921,-0.50885 1.358879,-0.38827 0.04363,0.0501 0.235071,0.52172 0.425462,1.04803 3.540306,9.78689 20.998215,59.97784 22.056337,63.42484 0.197449,0.2425 0.133474,0.4609 0.135365,0.4679 -0.19431,0.081 -1.303606,0.5048 -1.838529,0.6541 z m -40.293456,0.2309 c 0.804099,-0.3135 1.674713,-0.791 2.570099,-1.4097 0.790613,-0.5462 2.679621,-2.08 2.77075,-2.2497 0.08626,-0.1606 -2.843889,-8.6061 -2.99711,-8.6387 -0.0565,-0.012 -0.531416,0.3457 -1.05531,0.7946 -1.140933,0.9779 -1.756938,1.425 -2.704386,1.9628 -1.036034,0.5883 -2.052654,0.9918 -2.49833,0.9918 -0.250307,0 -0.575024,0.1831 -0.621191,0.3502 -0.05022,0.1819 0.108379,0.7483 0.846368,3.0224 0.657755,2.0268 1.235937,3.6858 1.472219,4.2243 0.552415,1.2592 0.969422,1.4383 2.216891,0.952 z m -4.724538,-8.1659 c 0.06331,-0.072 0.08445,-0.169 0.05844,-0.2662 -0.0559,-0.2088 -0.70408,-2.1313 -1.781924,-5.2854 -0.49774,-1.4566 -0.920883,-2.7396 -0.94031,-2.8512 -0.0455,-0.2613 -0.04161,-0.2636 1.354801,-0.7893 1.744835,-0.6569 2.641006,-1.2078 4.358668,-2.6797 0.418435,-0.3586 0.788495,-0.652 0.822351,-0.652 0.08391,0 0.350798,0.6889 1.318259,3.402 1.580845,4.4334 1.689231,4.6919 1.966599,4.6919 0.43326,0 1.666339,-1.541 4.334316,-5.4169 0.639623,-0.9292 1.192016,-1.6783 1.227519,-1.6648 0.03547,0.014 0.393544,0.9655 0.795657,2.1155 1.452897,4.1549 1.993151,5.5463 2.186559,5.6316 0.16045,0.071 0.497673,-0.3256 1.502395,-1.7659 1.127206,-1.6157 2.082394,-2.8773 3.279184,-4.3309 0.546555,-0.6638 0.99405,-1.2551 0.994401,-1.3141 7.49e-4,-0.06 -0.25205,-0.8416 -0.560909,-1.7394 -0.308851,-0.8978 -0.908519,-2.6548 -1.332582,-3.9044 -0.424055,-1.2496 -0.81162,-2.3438 -0.861245,-2.4318 -0.170642,-0.302 -0.388417,-0.214 -0.990674,0.4004 -0.834542,0.8516 -1.871698,2.2017 -3.756905,4.8904 -0.6087,0.8682 -1.129564,1.5784 -1.157479,1.5784 -0.08905,0 -0.26163,-0.4612 -1.471187,-3.9314 -1.343448,-3.8543 -1.532081,-4.3399 -1.685923,-4.3399 -0.06548,0 -0.670867,0.8081 -1.568961,2.0944 -2.367808,3.3913 -3.967796,5.4501 -4.101365,5.2773 -0.02507,-0.032 -0.28955,-0.7936 -0.587828,-1.6919 -0.612928,-1.8455 -1.791773,-5.2501 -2.040433,-5.8928 -0.190348,-0.492 -0.315751,-0.6745 -0.463405,-0.6745 -0.177228,0 -0.679608,0.3421 -1.369274,0.9325 -1.507969,1.2909 -3.102891,2.1865 -4.7971,2.694 -0.281663,0.085 -0.571633,0.2088 -0.644359,0.2764 l -0.132267,0.1231 0.192795,0.6342 c 0.106021,0.3488 0.67017,2.0229 1.253643,3.7203 1.272548,3.7015 1.375239,4.0228 1.319328,4.1267 -0.058,0.1079 -1.754279,0.03 -2.587108,-0.1191 -1.360712,-0.2432 -2.586225,-0.7409 -4.739586,-1.9252 -0.736072,-0.4048 -1.379668,-0.7361 -1.43022,-0.7361 -0.243333,0 -0.257709,-0.048 1.684193,5.5585 l 1.126145,3.251 1.229395,0.7069 c 3.19655,1.8379 4.786646,2.3749 7.113658,2.4023 0.644345,0.01 0.801143,-0.01 0.882731,-0.1049 z m 37.37664,-12.5415 c 0.04273,-0.1406 -0.113318,-0.6778 -0.72692,-2.5027 -0.658758,-1.9593 -1.38478,-3.9789 -1.777501,-4.9443 -0.314068,-0.7722 -0.53899,-1.0321 -1.313873,-1.5186 -1.585485,-0.9951 -3.754525,-1.8463 -5.414384,-2.1244 -0.798643,-0.1339 -2.184134,-0.1456 -2.396184,-0.02 -0.334027,0.1974 -0.366379,0.072 1.165097,4.4795 1.18186,3.4004 1.466816,4.1599 1.572928,4.1927 0.07125,0.022 0.57527,0.04 1.119992,0.041 1.128225,0 1.746033,0.075 2.722376,0.3245 1.271268,0.3252 2.432428,0.8179 3.926449,1.6659 0.879579,0.4994 1.072643,0.5694 1.12202,0.4068 z m -43.778136,-5.0279 c 0.200518,-0.1404 0.207193,-0.159 0.169782,-0.4726 -0.05673,-0.4755 -0.482225,-1.8927 -1.306171,-4.3506 -0.399247,-1.1911 -0.839751,-2.5601 -0.978895,-3.0424 -0.245794,-0.852 -0.249625,-0.8797 -0.134736,-0.9762 0.06504,-0.054 0.203885,-0.099 0.30853,-0.099 0.480623,0 1.868068,-0.6001 2.999676,-1.2976 0.712371,-0.4389 1.21124,-0.8005 2.224763,-1.6124 0.824971,-0.6608 0.929481,-0.726 1.039663,-0.6477 0.03884,0.027 0.624708,1.6461 1.302003,3.5966 1.542777,4.4431 1.62238,4.647 1.814538,4.647 0.274712,0 1.645939,-1.7335 3.734523,-4.7214 1.318796,-1.8866 1.804846,-2.4887 1.909087,-2.3651 0.09982,0.1183 0.626085,1.5374 1.509023,4.0691 0.787374,2.2577 1.392437,3.7703 1.532914,3.8322 0.149313,0.066 0.432376,-0.2912 2.443488,-3.0822 1.987793,-2.7585 3.138417,-4.2077 3.245081,-4.087 0.0345,0.04 0.423383,1.1414 0.864194,2.4496 1.614096,4.7901 2.006817,5.8783 2.142945,5.9384 0.104382,0.046 0.4324,-0.1858 1.420971,-1.0041 0.780158,-0.6458 1.382685,-1.0619 2.301808,-1.5897 0.949021,-0.5449 1.542491,-0.7841 2.14043,-0.8626 0.267886,-0.036 0.551563,-0.1126 0.630381,-0.1719 0.324462,-0.2443 0.29657,-0.8459 -0.101142,-2.1822 -0.185229,-0.6222 -2.000732,-5.8776 -2.282328,-6.6066 -0.16081,-0.4164 -0.211841,-0.4216 -1.232256,-0.1256 -1.887549,0.5475 -3.058042,1.218 -4.936842,2.8283 -0.418443,0.3585 -0.783572,0.652 -0.811411,0.652 -0.08204,0 -0.60971,-1.4008 -1.738497,-4.615 -0.582836,-1.6595 -1.101957,-3.1355 -1.153602,-3.2795 -0.05163,-0.1443 -0.136405,-0.281 -0.188334,-0.3039 -0.322584,-0.1421 -2.072508,1.9196 -4.142936,4.8812 -0.485324,0.6942 -1.045867,1.461 -1.245621,1.7039 l -0.363228,0.4418 -0.303725,-0.7456 c -0.310237,-0.7614 -0.453638,-1.1539 -1.711705,-4.6858 -0.798517,-2.2417 -0.940662,-2.5783 -1.103798,-2.6144 -0.154965,-0.035 -0.558762,0.4767 -2.037425,2.5782 -2.005941,2.8511 -3.490037,4.6956 -3.639741,4.5236 -0.03405,-0.039 -0.691851,-1.8716 -1.46175,-4.0721 -1.301487,-3.7194 -1.410636,-4.0017 -1.554278,-4.0186 -0.113363,-0.014 -0.467221,0.237 -1.328691,0.94 -2.05724,1.6789 -2.414541,1.8861 -4.3486,2.5218 -0.69224,0.2274 -1.286198,0.4453 -1.319919,0.484 -0.04049,0.047 0.295037,1.1012 0.990113,3.1121 1.312458,3.7971 1.635093,4.8122 1.643557,5.1717 l 0.0068,0.284 -0.710687,-0.01 c -1.840881,-0.018 -3.7682497,-0.6095 -6.1933589,-1.8984 -1.4006605,-0.7445 -1.5722538,-0.8115 -1.7009283,-0.6635 -0.080203,0.092 -0.083645,0.1601 -0.022302,0.44 0.289596,1.3215 2.3474957,6.7965 2.9805104,7.9298 0.2365517,0.4234 0.7741045,0.8428 1.7970562,1.4018 2.4999231,1.3662 6.1457311,2.3035 6.9011711,1.7743 z m 37.828744,-12.2568 c 0,-0.2556 -0.399778,-1.4785 -1.747776,-5.3463 l -1.125882,-3.2301 -0.957889,-0.5842 c -1.662852,-1.0145 -2.866535,-1.5521 -4.577274,-2.0449 -1.266209,-0.3647 -1.9103,-0.4743 -2.627625,-0.4473 -0.524404,0.02 -0.653849,0.048 -0.766449,0.1649 -0.109577,0.1141 -0.128532,0.191 -0.09909,0.4025 0.04759,0.3416 0.686695,2.295 1.837146,5.615 0.78188,2.2567 0.949889,2.6853 1.062675,2.712 0.07371,0.018 0.671189,0.098 1.327785,0.1789 2.539901,0.3136 3.878679,0.7632 6.258506,2.1016 0.654799,0.3682 1.24125,0.6695 1.303215,0.6695 0.0812,0 0.112659,-0.053 0.112659,-0.1916 z m -18.561438,-7.7822 c 0.164866,-0.1292 0.619574,-0.5046 1.010447,-0.8343 1.424287,-1.2011 2.495808,-1.8103 4.250776,-2.4164 0.466218,-0.161 0.885686,-0.3279 0.932167,-0.3712 0.247395,-0.2299 -0.209767,-1.85272 -1.642271,-5.82964 -0.322704,-0.89588 -0.697562,-1.89689 -0.833024,-2.22445 -0.135454,-0.32757 -0.236956,-0.60135 -0.225535,-0.60838 0.01145,-0.006 0.590859,0.008 1.287642,0.0333 1.02495,0.0373 1.406371,0.081 1.997274,0.22918 1.777547,0.44562 3.580261,1.17955 4.460762,1.81608 0.87226,0.63058 1.205082,0.71401 1.205082,0.30211 0,-0.36978 -1.548539,-4.9087 -2.196738,-6.43884 -0.49619,-1.17133 -0.835209,-1.71503 -1.372686,-2.20145 -0.584192,-0.52871 -1.962162,-1.28468 -3.187001,-1.74843 -1.414678,-0.53562 -3.833284,-1.12656 -4.610876,-1.12656 -0.499917,0 -0.555289,0.0886 -0.421534,0.67447 0.148141,0.64888 0.798113,2.67827 1.814269,5.66457 0.489538,1.43868 0.890035,2.62175 0.88999,2.62907 -4.5e-5,0.007 -0.229473,0.0145 -0.509841,0.0161 -0.411362,0.002 -0.623106,0.0477 -1.096861,0.23564 -1.276611,0.50634 -3.219666,1.73672 -4.595765,2.91008 -0.335344,0.28593 -0.62982,0.49323 -0.654389,0.46066 -0.02455,-0.0326 -0.428448,-1.16147 -0.897488,-2.50868 -1.32512,-3.80608 -1.970917,-5.42062 -2.201841,-5.50482 -0.172005,-0.0627 -0.474368,0.23806 -1.337955,1.33102 -1.957192,2.47704 -3.757511,5.05684 -4.047931,5.80055 -0.207005,0.53009 -0.102511,1.05023 0.678733,3.37869 0.50544,1.50639 1.432189,4.11603 1.713606,4.82523 0.16402,0.4135 0.240959,0.5347 0.339295,0.5347 0.196297,0 0.737397,-0.6849 2.383395,-3.017 1.651305,-2.3399 3.032613,-4.08241 3.236206,-4.08241 0.107451,0 0.212829,0.28143 1.592258,4.25241 0.724271,2.0848 1.363571,3.8496 1.420665,3.9222 0.147076,0.1866 0.276963,0.1649 0.619169,-0.1037 z"
       style="fill:#000000;fill-opacity:1"
       sodipodi:nodetypes="cccsssssssscsscssssssssscsssscssscccssscsssssssccscssssssssssscsscsssssscssssscccscsssscsscsssssssssssssssscssscssscssscscssscsssssscssscsssscsssscsccsscscsssscsssccsssssscsscsccsssssssssssssscsssssssssscc" />
  </g>
</svg>
