<?xml version="1.0" encoding="UTF-8" standalone="no"?>
<!-- Created with Inkscape (http://www.inkscape.org/) -->

<svg
   xmlns:dc="http://purl.org/dc/elements/1.1/"
   xmlns:cc="http://creativecommons.org/ns#"
   xmlns:rdf="http://www.w3.org/1999/02/22-rdf-syntax-ns#"
   xmlns:svg="http://www.w3.org/2000/svg"
   xmlns="http://www.w3.org/2000/svg"
   xmlns:sodipodi="http://sodipodi.sourceforge.net/DTD/sodipodi-0.dtd"
   xmlns:inkscape="http://www.inkscape.org/namespaces/inkscape"
   width="744.09448819"
   height="1052.3622047"
   id="svg2"
   version="1.1"
   inkscape:version="0.48.4 r9939"
   sodipodi:docname="EDUCATION.svg"
   inkscape:export-filename="C:\bin\CardMaker\MonEntrepriseAgile\ProductTeams\EDUCATION.png"
   inkscape:export-xdpi="300"
   inkscape:export-ydpi="300">
  <defs
     id="defs4" />
  <sodipodi:namedview
     id="base"
     pagecolor="#ffffff"
     bordercolor="#666666"
     borderopacity="1.0"
     inkscape:pageopacity="0.0"
     inkscape:pageshadow="2"
     inkscape:zoom="1.979899"
     inkscape:cx="-220.90305"
     inkscape:cy="815.61695"
     inkscape:document-units="px"
     inkscape:current-layer="g2996"
     showgrid="false"
     inkscape:window-width="1920"
     inkscape:window-height="1137"
     inkscape:window-x="1271"
     inkscape:window-y="-9"
     inkscape:window-maximized="1" />
  <metadata
     id="metadata7">
    <rdf:RDF>
      <cc:Work
         rdf:about="">
        <dc:format>image/svg+xml</dc:format>
        <dc:type
           rdf:resource="http://purl.org/dc/dcmitype/StillImage" />
        <dc:title></dc:title>
      </cc:Work>
    </rdf:RDF>
  </metadata>
  <g
     inkscape:label="Layer 1"
     inkscape:groupmode="layer"
     id="layer1">
    <g
       id="g2996"
       transform="translate(141.7013,20.069986)">
      <path
         style="fill:#000000"
         d="m -500.13226,245.61695 c -1.925,-1.03311 -6.23738,-4.72573 -9.58308,-8.2058 -7.37999,-7.67642 -12.72531,-10.46969 -23.99523,-12.53906 -7.41974,-1.3624 -9.55147,-1.39598 -15.64378,-0.24645 -6.82978,1.28869 -7.19973,1.25363 -11.66569,-1.1055 -2.89217,-1.52779 -5.11437,-3.57554 -5.9587,-5.49095 -1.11091,-2.52013 -1.95209,-3.07171 -4.80791,-3.15266 -12.68077,-0.35945 -26.30012,-14.24048 -36.04789,-36.74052 -2.50478,-5.78158 -1.92659,-6.6633 -3.04314,-27.69946 -1.19556,-22.52489 2.732,-35.37994 4.06461,-39.74239 0.34041,-1.11438 3.27002,-6.46756 6.77474,-11.610423 8.35619,-12.26194 20.03559,-26.5139 30.52202,-31.62554 6.09371,-2.9704 7.86991,-3.36673 15.47117,-3.45218 7.32634,-0.0824 8.89693,-0.40633 10.69725,-2.20665 2.54139,-2.541388 9.46976,-4.57024 12.5148,-3.664738 1.21045,0.35996 3.72051,1.52683 5.57791,2.59304 7.54358,4.330298 25.13393,6.204158 33.12954,3.529208 1.92865,-0.64523 6.54308,-2.90045 10.25429,-5.011608 8.20055,-4.664946 16.02666,-5.648115 16.5369,-2.077473 0.39061,2.733513 -4.9957,9.278141 -11.10215,13.489641 l -4.80433,3.31347 2.80433,1.4393 c 1.54239,0.79161 5.05434,3.32866 7.80434,5.63788 l 5,4.19859 5.5,-2.13895 c 3.025,-1.17642 9.94825,-3.20509 15.385,-4.50815 8.90186,-2.13358 10.79303,-2.27077 19.01487,-1.37938 18.70868,2.02835 32.20864,11.8885 38.39567,28.043583 5.28723,13.8056 6.63915,22.03198 6.6262,40.31996 -0.0131,18.46404 -1.32736,26.91024 -6.45761,41.5 -7.39957,21.04337 -18.25074,36.87762 -29.8802,43.60178 -15.04888,8.70127 -36.07835,7.05949 -52.63682,-4.10937 -3.27091,-2.20626 -7.59678,-5.11389 -9.61305,-6.46138 -2.01627,-1.34749 -3.93484,-2.88507 -4.26348,-3.41684 -0.64424,-1.04239 -4.78597,-0.13965 -8.51459,1.85585 -1.22253,0.65427 -4.94002,1.74386 -8.26108,2.4213 l -6.03829,1.2317 3.61254,3.93848 c 4.46918,4.87242 9.63084,14.37026 9.63084,17.72147 0,1.37667 -0.7118,2.77618 -1.58179,3.11002 -1.89569,0.72745 -1.20703,0.90028 -5.41821,-1.3598 z m 8.32878,-120.73328 c 3.23911,-1.6406 5.67122,-6.65391 5.67122,-11.69008 0,-4.63576 -5.16112,-11.30214 -11.12707,-14.372333 -2.53474,-1.30442 -7.61972,-2.88745 -11.29996,-3.51785 -7.41599,-1.2703 -8.52781,-0.6995 -8.55766,4.39342 -0.0146,2.489683 0.2824,2.636983 6.28868,3.119113 7.49711,0.60179 10.33774,2.1522 11.74264,6.4091 2.49785,7.56854 -1.26242,11.3587 -11.26914,11.3587 -5.35777,0 -6.77749,0.31421 -6.77749,1.5 0,0.825 0.3375,1.52594 0.75,1.55764 0.4125,0.0317 3.9,0.90494 7.75,1.94052 7.3521,1.97759 11.91998,1.78806 16.82878,-0.69823 z"
         id="path2998"
         inkscape:connector-curvature="0"
         sodipodi:nodetypes="sssssssssssssssssssscsscssssssssscsscssssssssssssssss" />
    </g>
  </g>
</svg>
