<?xml version="1.0" encoding="UTF-8" standalone="no"?>
<!-- Created with Inkscape (http://www.inkscape.org/) -->

<svg
   xmlns:dc="http://purl.org/dc/elements/1.1/"
   xmlns:cc="http://creativecommons.org/ns#"
   xmlns:rdf="http://www.w3.org/1999/02/22-rdf-syntax-ns#"
   xmlns:svg="http://www.w3.org/2000/svg"
   xmlns="http://www.w3.org/2000/svg"
   xmlns:sodipodi="http://sodipodi.sourceforge.net/DTD/sodipodi-0.dtd"
   xmlns:inkscape="http://www.inkscape.org/namespaces/inkscape"
   width="744.09448819"
   height="1052.3622047"
   id="svg3002"
   version="1.1"
   inkscape:version="0.48.4 r9939"
   sodipodi:docname="SOCIAL.svg">
  <defs
     id="defs3004" />
  <sodipodi:namedview
     id="base"
     pagecolor="#ffffff"
     bordercolor="#666666"
     borderopacity="1.0"
     inkscape:pageopacity="0.0"
     inkscape:pageshadow="2"
     inkscape:zoom="1.979899"
     inkscape:cx="317.84851"
     inkscape:cy="603.73419"
     inkscape:document-units="px"
     inkscape:current-layer="layer1"
     showgrid="false"
     inkscape:window-width="1920"
     inkscape:window-height="1137"
     inkscape:window-x="1271"
     inkscape:window-y="-9"
     inkscape:window-maximized="1" />
  <metadata
     id="metadata3007">
    <rdf:RDF>
      <cc:Work
         rdf:about="">
        <dc:format>image/svg+xml</dc:format>
        <dc:type
           rdf:resource="http://purl.org/dc/dcmitype/StillImage" />
        <dc:title></dc:title>
      </cc:Work>
    </rdf:RDF>
  </metadata>
  <g
     inkscape:label="Layer 1"
     inkscape:groupmode="layer"
     id="layer1">
    <path
       style="fill:none;stroke:#000000;stroke-width:1px;stroke-linecap:butt;stroke-linejoin:miter;stroke-opacity:1"
       d="m 228.79955,304.8493 0.75762,-78.03429 55.81093,-0.25254 -5.55584,23.73859 -23.48605,1.51523 0,5.3033 16.66752,-0.25254 -2.52538,16.16244 -16.16245,0.75762 1.2627,31.8198 z"
       id="path3025"
       inkscape:connector-curvature="0" />
    <path
       style="fill:none;stroke:#000000;stroke-width:1px;stroke-linecap:butt;stroke-linejoin:miter;stroke-opacity:1"
       d="m 302.79322,305.73318 36.36549,0 c 1.72875,-27.05553 7.27074,-52.49196 15.90991,-78.7919 l -27.52666,0.75761 -4.79823,41.92133 -0.50507,-45.45686 -29.29443,1.01015 c 7.01349,26.53622 10.4466,51.83526 9.84899,80.55967 z"
       id="path3027-1"
       inkscape:connector-curvature="0"
       sodipodi:nodetypes="cccccccc" />
    <path
       style="fill:#000000;fill-opacity:1;stroke:none"
       d="m 387.14096,303.08155 0.75762,-78.03429 55.81093,-0.25254 -5.55584,23.73859 -23.48605,1.51523 0,5.3033 16.66752,-0.25254 -2.52538,16.16244 -16.16245,0.75762 1.2627,31.8198 z"
       id="path3025-7"
       inkscape:connector-curvature="0" />
    <path
       style="fill:#000000;fill-opacity:1;stroke:none"
       d="m 461.13463,303.96543 36.36549,0 c 1.72875,-27.05553 7.27074,-52.49196 15.90991,-78.7919 l -27.52666,0.75761 -4.79823,41.92133 -0.50507,-45.45686 -29.29443,1.01015 c 7.01349,26.53622 10.4466,51.83526 9.84899,80.55967 z"
       id="path3027-1-4"
       inkscape:connector-curvature="0"
       sodipodi:nodetypes="cccccccc" />
    <path
       style="fill:#000000;fill-opacity:1;stroke:none"
       d="m 345.34591,366.08979 78.03429,0.75762 0.25254,55.81093 -23.73859,-5.55584 -1.51523,-23.48605 -5.3033,0 0.25254,16.66752 -16.16244,-2.52538 -0.75762,-16.16245 -31.8198,1.2627 z"
       id="path3025-7-0"
       inkscape:connector-curvature="0"
       inkscape:export-filename="C:\bin\CardMaker\MonEntrepriseAgile\ProductTeams\SOCIAL.png"
       inkscape:export-xdpi="300"
       inkscape:export-ydpi="300" />
    <path
       style="fill:#000000;fill-opacity:1;stroke:none"
       d="m 356.07877,366.08981 -36.36549,0 c -1.72875,27.05552 -7.27074,52.49196 -15.90991,78.7919 l 27.52666,-0.75762 4.79823,-41.92132 0.50507,45.45686 29.29443,-1.01015 c -7.01349,-26.53623 -10.4466,-51.83527 -9.84899,-80.55967 z"
       id="path3027-1-4-9"
       inkscape:connector-curvature="0"
       sodipodi:nodetypes="cccccccc"
       inkscape:export-filename="C:\bin\CardMaker\MonEntrepriseAgile\ProductTeams\SOCIAL.png"
       inkscape:export-xdpi="300"
       inkscape:export-ydpi="300" />
  </g>
</svg>
